/* XPM */
static char *_790589a9d88409f9a70fd0dab6aba76RcVbX5clYWBJbU0a[] = {
/* columns rows colors chars-per-pixel */
"64 64 193 2 ",
"   c #050B0D",
".  c #050D11",
"X  c #0A0F14",
"o  c #051115",
"O  c #0A1216",
"+  c #06161B",
"@  c #0E151C",
"#  c #061A1E",
"$  c #0A191F",
"%  c #10171D",
"&  c #111A1E",
"*  c #071D23",
"=  c #0A1D24",
"-  c #0A1F29",
";  c #141C24",
":  c #171F2A",
">  c #0A2127",
",  c #072329",
"<  c #0B232B",
"1  c #152225",
"2  c #16222C",
"3  c #19222E",
"4  c #12292F",
"5  c #1A2A2E",
"6  c #0C2732",
"7  c #072C35",
"8  c #0A2B34",
"9  c #0C2D39",
"0  c #142631",
"q  c #1C2631",
"w  c #152C35",
"e  c #1C2E34",
"r  c #162E3B",
"t  c #192D3A",
"y  c #0B323C",
"u  c #1C3136",
"i  c #16353C",
"p  c #1D333A",
"a  c #222C36",
"s  c #242D38",
"d  c #22343B",
"f  c #29313C",
"g  c #26383E",
"h  c #29393E",
"j  c #0B3541",
"k  c #073845",
"l  c #0C3843",
"z  c #0C3B4A",
"x  c #173442",
"c  c #1A3442",
"v  c #133945",
"b  c #1C3B43",
"n  c #123C4B",
"m  c #193D4D",
"M  c #2B3440",
"N  c #243A44",
"B  c #2C3A41",
"V  c #233D49",
"C  c #313C45",
"Z  c #353E48",
"A  c #09404E",
"S  c #17424C",
"D  c #0B4453",
"F  c #0A4455",
"G  c #0A4856",
"H  c #0B4B5C",
"J  c #154354",
"K  c #1B4353",
"L  c #1A4856",
"P  c #194658",
"I  c #154B5C",
"U  c #1A4C5D",
"Y  c #10505D",
"T  c #264046",
"R  c #23434D",
"E  c #2B424A",
"W  c #36424D",
"Q  c #244552",
"!  c #244A54",
"~  c #264B58",
"^  c #314654",
"/  c #3E4650",
"(  c #324A55",
")  c #25525D",
"_  c #0E4D60",
"`  c #164D61",
"'  c #0B5264",
"]  c #0B5669",
"[  c #0C596E",
"{  c #155165",
"}  c #1A5365",
"|  c #135569",
" . c #18566B",
".. c #19586E",
"X. c #0D5E73",
"o. c #155D72",
"O. c #195D73",
"+. c #2E5767",
"@. c #2B5769",
"#. c #235B6C",
"$. c #2A5A68",
"%. c #345362",
"&. c #315C6C",
"*. c #0B6379",
"=. c #0C647A",
"-. c #18667D",
";. c #386A7A",
":. c #454E56",
">. c #414E5A",
",. c #495057",
"<. c #4B525B",
"1. c #4B5C64",
"2. c #525B64",
"3. c #585F67",
"4. c #4D6069",
"5. c #5A626A",
"6. c #476876",
"7. c #596A75",
"8. c #5B717B",
"9. c #656D75",
"0. c #6C747C",
"q. c #71797E",
"w. c #166F89",
"e. c #117894",
"r. c #31798F",
"t. c #317B91",
"y. c #5D7C86",
"u. c #6B7B85",
"i. c #588A98",
"p. c #678089",
"a. c #79868C",
"s. c #6C8691",
"d. c #688A96",
"f. c #698B97",
"g. c #62919F",
"h. c #79959E",
"j. c #4199AD",
"k. c #4C99AB",
"l. c #5E9DAB",
"z. c #649DAB",
"x. c #46ABBD",
"c. c #62A0AF",
"v. c #60A8B6",
"b. c #6CC4D3",
"n. c #828A92",
"m. c #869298",
"M. c #89979E",
"N. c #89989E",
"B. c #91979E",
"V. c #8699A0",
"C. c #8999A0",
"Z. c #929EA3",
"A. c #999FA6",
"S. c #86A1AA",
"D. c #92A4AB",
"F. c #9FA4A9",
"G. c #91B4BE",
"H. c #A6ABAE",
"J. c #A6ABB1",
"K. c #A9ADB2",
"L. c #ADB2B6",
"P. c #AEB3B8",
"I. c #ADB8BD",
"U. c #B5B9BD",
"Y. c #B8BBBF",
"T. c #88B7C2",
"R. c #99B8C0",
"E. c #A4BAC1",
"W. c #B3BDC3",
"Q. c #A9C1C8",
"!. c #AEC8CF",
"~. c #B5C3C9",
"^. c #BCC5CA",
"/. c #BFC9CE",
"(. c #AECDD4",
"). c #B5CED4",
"_. c #A7D3DB",
"`. c #B3D0D7",
"'. c #BFD1D6",
"]. c #B5D3DA",
"[. c #BFD7DD",
"{. c #A7DEE7",
"}. c #ADD8E0",
"|. c #CDE9ED",
" X c #D2E9EB",
".X c #CBF4F8",
"XX c #D9F7F9",
"oX c #DDFDFF",
"OX c #E6F6F8",
"+X c #E3F8FA",
"@X c #ECFDFE",
"#X c #F1FEFF",
"$X c #F3FEFF",
/* pixels */
"^.U.U.U.U.U.U.U.U.U.U.U.U.U.U.U.U.U.U.U.U.U.U.U.U.U.U.U.U.U.U.U.U.U.U.U.U.U.U.U.U.U.U.U.U.U.U.U.U.U.U.U.U.U.U.U.U.U.U.U.U.U.U.Z ",
"0.3 3 3 3 3 3 3 3 3 3 3 3 3 3 3 3 3 3 3 3 3 3 3 3 3 3 3 3 3 3 3 3 3 3 3 3 3 3 3 3 3 3 3 3 3 3 3 3 3 3 3 3 3 3 3 3 3 3 3 3 3 3 % ",
"0.3 3 3 3 3 3 3 3 3 3 3 3 3 3 3 3 3 3 3 3 3 3 3 3 3 3 3 3 3 3 3 3 3 3 3 3 3 3 3 3 3 3 3 3 3 3 3 3 3 3 3 3 3 3 2 3 3 3 3 3 3 3 % ",
"0.3 % O X X o o X X X X X X X X X X o O X X X X X X X X X O O o X X X X X X X . X X O o . O X X X X X X X X o o X X X X & : : @ ",
"0.3 @       @ O .             .   . .   .   . . .     . .     . .       . . . . . & @ .           . & .   .               3 3 % ",
"0.3 @ . o + 2 = + . . . . o $ = > > > > > > > > = = = $ $ $ @ O $ $ @ @ O @ @ $ ; ; O .   .   . o o 1 = + # # # # * + # o 0.: % ",
"0.3 % q.a.m.V.N.N = + $ # , Z.M.C.C.C.R D.M.C.C.M.N u e 5 5 5 5 5 5 5 5 5 5 5 5 : o + o X X X . o # e u w Z.m.N.N.N.R n.0.0.q @ ",
"0.3 % 1.v J J J y 8 , * < 7 y.S J I I D y.S J J K y 7 < > = $ $ $ $ $ $ $ $ $ $ * + @ o @ o + o @ > h p S p.S I I I D 7.9 0.: % ",
"0.q % y z H _ H z z k j k F ` H _ ] ] ] F G H _ F z k y < - = = $ > = = = = = = # $ O $ O $ = * , y ! J G ` H ' ] ] ' z y 0.3 @ ",
"0.: %  X+X@X#X#X@X/.~.~.~.%.@X#X#X@X@X@X$X#X$X$X#X#XG y 8 < , - > > > > > > > > = = $ + O = - 6 /.~.~.~.%.@X#X#X#X@X#XOX X0.3 @ ",
"0.: @ D.G.!.`.(.t.+.J J J l ].`.`.`._.t.'.).).).).;.+.! E B M B h h h h g g g M h 2 = + $ = < y $.J J J j ].(.`.`.].t.E.S.0.3 % ",
"0.q ; 4.K } ..O.] ;.{ | { D c.o......._ f.` } } ` l l y 8 < - - 4 < < 2 4 4 0 8 g e = @ = > y D ;.{ | { D c.O.O.....I y.v 0.3 @ ",
"0.3 @ 1.x J ` { ' $X$X$X#X#Xz.{ ` P P n s.m K m m 9 7 < = = = = = $ = = $ = = < p e = $ = 8 z &.$X$X$X$X#Xz.{ ` P P v 8.w 0.3 @ ",
"0.3 = 2.0 c m m n E.G.R.G.` g.J m m c 6 u.c x x p 2 - = * @ @ + $ $ $ $ $ O = = p e = = > 8 ! L Q.G.G.G.` i.m m c c 6 9.2 0.q @ ",
"0.: @ <.; C s r 9 f.` ` U z s.r Z s 3 @ 0.3 C s : @ @ @ @ + + @ O O $ $ @ + = = d e > * < T b j f.U U U n f.r t q 3 O 5.; 0.: @ ",
"0.: @ <.; J.7.t 0 s.m m m 9 u.t P.3.3 % 0.3 P.3.3 @ @ + + @ @ X $ O $ O + @ $ = d e > > g N 7 7 s.K %.! 9 u.t 0 3 3 % 3.; 0.q @ ",
"0.3 % <.; F.2.a ; u.M Z M 3 u.3 J.2.3 @ u.: : 3 3 = = = = = * * @ + @ + @ + $ > d e > = f t - - u.c I.8.: u.3 C a 3 @ 5.; 0.: @ ",
"0.3 % <.; C a : % 0.3 P.5.@ u.3 C q 3 @ u.: M s q ; - - 6 6 7 * = $ @ @ + $ = = d e , , h t - = 0.q q : @ 0.3 L.3.3 ; 5.; 0.: @ ",
"0.3 ; <.: K.3.3 % 0.3 J.2.@ u.: W.5.3 @ u.3 W.3.0 6 j k F F k k 6 < = = = = > < p e , , h e ; @ 0.q C a @ 0.3 J.2.3 @ 5.; 0.3 % ",
"0.3 @ <.; K.3.3 X u.q Z s @ u.: K.3.3 @ 0.3 P.: 0 9 F ] =.=.] G k 6 , > > = , 0 p e = < N e ; % 0.q P.3.@ u.3 C s 3 @ 3.% 0.3 % ",
"0.3 % ,.; J.5.: % 0.3 : 5.@ 0.3 3 3 3 % 0.: 3 3 t l '.T.$X$X[.).~.W.U.U.U.U.U.U.U.U.U.U.W.Y.U.Z 0.q L.3 ; 0.3 3 5.3 % 5.; 0.3 % ",
"0.: % <.: J.5.3 X 0.a P.3 % 0.3 P.5.3 % 0.: P.5.x n z.w.$X$Xk.O.) 7.2.a 5.3 3 5.5.3 2.M 3.3 : @ 0.q 3 q @ 0.3 L.3 : % 5.% 0.3 % ",
"0.3 @ <.: J.5.3 @ u.3 P.5.@ 0.3 P.: 3 % u.3 3 5.c F z.w.$X$Xj.O.&.t J.B L.L.L.3 L.L.J.<.K.3 : X 0.q L.5.@ 0.: L.5.3 @ 5.% 0.3 @ ",
"0.3 % <.: K.5.3 % 0.q 3 3 @ 0.3 3 5.3 X 0.: P.5.c H I [ #X$XX.F 9 = X X X X X X . O . O X X X X 0.q 3 3.@ 0.3 3 3 3 @ 5.; 0.3 % ",
"0.3 % <.; F.2.3 @ 0.3 P.3 @ u.3 K.2.3 % 0.: : 3 f F }.b.oXoX{._.(.W.U.U.U.U.U.U.W.Y.Y.Y.Y.U.W.Z 0.q P.5.X 0.: L.3 3 % 5.% 0.3 % ",
"0.3 % <.: ,.M 3 @ 0.3 P.5.@ 0.: <.M 3 % u.3 <.f s ` v.e.@X@Xx.w. .8.2.a 5.3 3 5.3.: 2.f 3.: : % 0.3 3 3 % u.3 L.5.3 % 5.; 0.3 X ",
"0.3 % <.: A.5.3 @ 0.q K.2.@ 0.3 J.3.3 @ 0.: 3 3.x _ v.e.@X@Xj.w.&.t J.C L.L.L.3 L.L.J.<.H.: : % 0.q <.M % 0.3 K.2.3 % 5.% 0.3 % ",
"0.: % <.: m.<.3 @ u.3 <.M @ 0.3 B.<.3 % u.3 B.<.x _ _ w.#X@Xo.F y = X X X X X . X X X X X X X X 0.q 3 3.% 0.3 <.M 3 % 5.% u.3 % ",
"0.3 % ,.; : 3 3 @ 0.q 3 3 % 0.3 : : 3 @ u.: 3 3 x F {.b.XXXX{._.(.U.U.U.U.U.U.U.Y.Y.Y.Y.Y.Y.Y.Z 0.q B.<.% 0.3 3 3 3 % 5.% 0.3 % ",
"0.3 % <.: : 3 : @ 0.3 : 3 % 0.3 3 3 3 @ u.: 3 3 x F v.e.@XOXx.w.#.8.2.a 5.3 3 5.3.: 2.f 3.3 : @ 0.q 3 3 X u.3 3 3 : % 5.; 0.3 % ",
"0.3 : ,.; ; : : % 5.3 : 3 X 9.: 3 : : @ 9.: : : t n g.w.@XOXj.O.&.w H.f H.K.K.3 H.J.A.:.H.; : @ 9.: : 3 @ 9.: : 3 : @ 3.% A.3 % ",
"0.3 C 0.Y.Y.Y.Y.Y.Y.Y.Y.W.Y.Y.Y.Y.Y.Y.W.U.U.U.U.W.W.W.W.W.U.U.U.U.U.U.U.U.U.U.U.U.U.U.W.W.U.U.U.U.U.U.Y.U.Y.Y.U.U.Y.U.U.P.n.3 % ",
"0.3 3 3 3 3 3 3 q : q 3 3 3 3 3 3 3 3 3 3 3 3 3 3 3 3 q 3 3 3 3 3 3 3 3 3 3 3 3 3 3 3 3 3 3 3 3 3 3 3 3 3 3 3 3 3 3 3 3 3 3 3 % ",
"0.3 % O X . O . X X X X X X O O . X X O X X X O X X X O O . O   X O X o O X X X O o O X X X o o X X X X O o   O X X o O & : : % ",
"0.3 %   .           . .         . .           .   . o + $ + + + 1 + . o o 1 O o $ & o o o & 1 o o O & O o           . . . : q % ",
"0.3 @ . . O o o o o o . o o o o . X o o o o o . o o o . o   + # 3 = # # # 5 > > > 5 * $ O # 1 1 + O 1 $ o o o o O # + o . 0.: % ",
"0.3 % @ @ ; = 1 = ; = 1 ; > 1 > 1 ; > 1 > ; > = = = $ O o o # > p Z.M.N.N.N.Q D.N.N.N.N.N < 4 q # # 5 = # = > D.C.V.m.a.t 0.q & ",
"0.3 % 1 5 5 a e a e e e e q 5 a e e e e a e a a e a 3 $ O + = 7 R y.J L Y I A y.J J J J y y i p > > d 4 4 i i y.m I n n , 0.: % ",
"0.3 @ + = * = = = = = = = = = = = = = = = < = , = = $ $ $ = 8 R ) J G ' ] ] ' L G H ' H D H U K y y R S L ) } Y _ ' F z 6 0.3 % ",
"0.3 @ X o $ = $ = = $ = = $ = = $ = = = < , 6 < , = = $ = < T ! G #X$X$X$X#X#X#X$X#X#X#X#X/.~.W.!.&./.~.~.~.%.#X@X@X@XOX X0.3 % ",
"0.3 % o $ @ + = = $ $ = $ $ $ $ $ = * , 8 9 %.9 8 < > < < g V y z '.`.`.`.`.t./.'.).`.`.r.+.J ` ` H @.J ` m l ].(.].(.E.~ 0.: @ ",
"0.3 @ + = = = = > = = = = = > = = > 4 9 h.^.@.z y 9 < < p g 8 8 y f.U }  ...` z.U { ..O.| ;.| o.X.X.;.` | | z c.O...{ m 6 u.3 @ ",
"0.3 % 1 5 e e t t u e u e u u t e p b K 6.J i._.U S b N g < < < 8 s.K K P P n s.m P ` { ' $X#X#X@X@X$X$X@X#X#Xl.{ U m v - 0.3 @ ",
"0.3 @ 3 e p d d p p g d g p d d p N R L } |.@XT.) ! N p > > = < 8 u.c p x x 0 u.c c m m n E.T.R.T.w.W.G.T.G.` g.J m x 0 = 0.3 @ ",
"0.3 ; + # = = = = = > * = > = > > < 8 j A  XR.S.n y 4 > = $ = > h 0.3 q : 3 @ 0.3 3 t x 6 f.} } { H f.U ` ` n y.x q 3 ; X 0.3 @ ",
"0.: @ o + $ $ = $ $ = $ = = = > = , 8 y j U 6.L x 8 , = = > < g d 0.3 C s 3 @ 0.3 3 q t 6 s.P m P n s.m m m x u.t q 3 : X 0.3 @ ",
"0.3 ; o = = - = = $ $ $ = = < > > < 8 7 y j v c V 0 < , , > h d , 0.: L.3.q % 0.3 C a q - u.c Z V 0 u.c Z V - u.3 3 3 ; X 0.3 @ ",
"0.3 @ * 7 y y 7 < = = = 4 B B B B B B T E ^ V d 2.>.a B B B d > = 0.3 3 q : @ 0.3 L.3.3 @ 0.q L.3.% 0.a L.3.@ u.3 3 3 ; X 0.3 @ ",
"0.: @ 9 @.#.$.~ ( < > < h u > > , > > > > < , q K.C : = > > = $ @ 0.: Z s 3 % 0.: J.2.3 % 0.3 J.2.@ 0.3 3 3 % 0.: M q : X 0.3 % ",
"0.q ; k -.=.=.#.S 8 5 E u > > > - ; = - > > - = q 3 q q = > = $ @ u.3 P.3.3 % 0.: Z s 3 % 0.q Z s = 0.q C s % u.3 P.2.: X 0.3 @ ",
"u.: @ i.OX$X[.).!.Y.U.U.U.U.U.U.U.U.U.U.U.U.U.Z ; :.n.a > > = = @ u.3 P.3 3 % 0.3 3 5.3 % 0.q 3 3.@ 0.q P.3.% 0.3 J.<.; X 0.3 % ",
"0.: @ H OX@Xk.O.L N 5.2.a 5.3 2 5.3 : 2.M 5.3 % B 3.U.a 3 h g = @ 0.3 3 3 3 X 0.3 P.3 : % 0.q P.3 @ 0.q P.: % 0.3 Z a : X 0.3 % ",
"0.: = ` OX@Xk.O.K ^ 3 H.C 3 3 L.: : P.K.<.H.: % i r 5.s Z e u > @ u.: K.5.3 % 0.3 P.5.3 % 0.q P.5.; 0.3 3 3 @ 0.3 3 2.: X 0.: @ ",
"u.: @ z OXOXX.G y $ X X . X O . X X X X X X X X E C 5 K.<.f C > % u.3 3 5.3 % u.3 3 3 3 % 0.q 3 : @ 0.q P.5.% 0.3 P.: : X u.3 @ ",
"0.: ; k..XXX{._.(.W.U.U.U.U.U.U.W.U.U.U.U.U.U.C < < < W 9.<.; = % 9.3 L.5.3 X 0.: P.3 3 % 0.3 L.: % 0.q 3 5.% 0.3 L.2.: X 0.3 @ ",
"0.: @ o.XX+Xx.w.{ V 5.2.a 5.3 3 3.q : q : 3.: % > > < 2 H.f 3 - ; u.3 3 3 3 % u.3 P.5.3 X u.q P.5.% 0.q L.5.% 0.3 3 : : X 0.3 @ ",
"0.: @ ] XX@Xj.w.U ^ 3 H.B 3 3 L.3 3 L.3 3 H.3 % 4 < 4 6 3 M M : 3 u.3 <.M 3 % u.3 J.2.3 @ u.q K.2.% 0.q 3 3 @ 0.3 L.: : X 0.: @ ",
"0.: ; D OX@X=.G 9 $ X X X X X . X X . X X . X X B B M M a / / C s 0.3 3 3.3 X 0.3 <.M 3 @ u.q <.M % 0.q <.M X 0.3 L.2.; X u.3 % ",
"0.q @ k..XXX{._.(.W.W.U.U.U.U.U.U.U.U.U.U.U.U.Z = < - - ; 3 B.:.; 0.: B.<.3 % u.3 3 3 : @ 0.3 3 3 % 0.3 3 5.@ u.3 J.<.: X 0.3 @ ",
"0.3 @ X.XX+Xx.w.{ p 3 3 a 5.3 3 5.3 3 2.3 3 3 % = = @ = = ; ,.% X u.3 3 3 3 X 0.3 3 3 : @ 0.3 3 : % u.3 B.<.X 0.3 <.M ; X u.3 @ ",
"0.3 : ] XXOXj.O.L w 3 3 C : : H.: 3 H.F.: : : % + O + @ X X % X X 9.: : : : @ 9.: : : : % 5.3 : : @ 9.: : : @ 9.: : : ; X A.: % ",
"0.3 C 9.U.U.U.U.U.U.U.U.U.U.U.U.U.U.U.U.U.U.U.U.U.U.U.U.W.Y.W.Y.U.Y.W.Y.W.U.W.Y.Y.Y.W.W.Y.Y.Y.Y.Y.Y.U.U.W.Y.Y.W.Y.U.U.Y.P.n.3 % ",
"u.3 3 3 3 3 3 3 3 3 3 3 3 3 3 3 3 3 3 3 3 3 3 3 3 3 : 3 3 3 3 3 : 3 3 3 3 3 : 3 3 3 3 3 : 3 3 3 3 3 : 3 3 3 3 3 3 : 3 3 3 3 3 % ",
"0.3 3 3 3 3 3 3 3 3 3 3 3 3 3 3 3 3 3 3 3 3 3 3 3 3 3 3 3 3 3 3 3 3 3 3 3 3 3 3 3 3 3 3 3 3 3 3 3 3 3 3 3 3 3 3 3 3 3 3 3 3 3 @ "
};
