/* XPM */
static char *d33aebd9eec747d6cac6ab5b8c9a93225jiNydav9bB7D4kr[] = {
/* columns rows colors chars-per-pixel */
"64 64 145 2 ",
"   c #19222E",
".  c #1B2633",
"X  c #1B2935",
"o  c #1E2C3A",
"O  c #19333E",
"+  c #212E3D",
"@  c #1B3541",
"#  c #193843",
"$  c #1C3C49",
"%  c #222F40",
"&  c #243344",
"*  c #213846",
"=  c #273648",
"-  c #27384A",
";  c #29394C",
":  c #2C3D52",
">  c #19414E",
",  c #1A4552",
"<  c #1A4955",
"1  c #194E5C",
"2  c #1A515D",
"3  c #24404E",
"4  c #224454",
"5  c #2D4155",
"6  c #244658",
"7  c #2B4559",
"8  c #264B5B",
"9  c #294C5E",
"0  c #31455C",
"q  c #1D5562",
"w  c #1A5965",
"e  c #1A5E6A",
"r  c #2B4D62",
"t  c #255464",
"y  c #2C5065",
"u  c #2D5469",
"i  c #235C6B",
"p  c #295D6F",
"a  c #315067",
"s  c #31586F",
"d  c #265F71",
"f  c #2C5F74",
"g  c #1A626F",
"h  c #196571",
"j  c #1C6977",
"k  c #1D6E7B",
"l  c #19727E",
"z  c #256273",
"x  c #2A6476",
"c  c #266779",
"v  c #2C677B",
"b  c #216F7D",
"n  c #2C6B7D",
"m  c #197581",
"M  c #197B86",
"N  c #1A7D89",
"B  c #226F80",
"V  c #2B6E81",
"C  c #267484",
"Z  c #277688",
"A  c #29778A",
"S  c #227D8C",
"D  c #2B7B8D",
"F  c #1C818E",
"G  c #1E8592",
"H  c #1A8994",
"J  c #198E9A",
"K  c #1A929D",
"L  c #22828F",
"P  c #228493",
"I  c #2A8495",
"U  c #248896",
"Y  c #268A99",
"T  c #2A8C9D",
"R  c #22919E",
"E  c #1A96A0",
"W  c #1E99A5",
"Q  c #1F9CA8",
"!  c #2C8FA0",
"~  c #2395A2",
"^  c #2D92A2",
"/  c #2599A7",
"(  c #249DA9",
")  c #2B99A8",
"_  c #2C99A8",
"`  c #2E9BAB",
"'  c #19A8B1",
"]  c #19A9B2",
"[  c #19ABB4",
"{  c #25A1AD",
"}  c #26A0AD",
"|  c #27A2AE",
" . c #29A0AE",
".. c #2CA0AF",
"X. c #2AA5B3",
"o. c #2CA6B3",
"O. c #2EA9B6",
"+. c #22AEB9",
"@. c #23B2BB",
"#. c #27B4BF",
"$. c #29B4BF",
"%. c #19BBC2",
"&. c #2CB6C2",
"*. c #21BEC7",
"=. c #22BFC9",
"-. c #19C7CE",
";. c #19C8CE",
":. c #19CED3",
">. c #1ACED3",
",. c #19CFD6",
"<. c #1FD2D8",
"1. c #26C3CC",
"2. c #2AC3CD",
"3. c #22CBD3",
"4. c #26CDD5",
"5. c #27CED5",
"6. c #29D5DC",
"7. c #2FEAEF",
"8. c #34E9EE",
"9. c #36EBEF",
"0. c #38EAEF",
"q. c #3AECF1",
"w. c #3AF1F5",
"e. c #41F2F6",
"r. c #43F7F9",
"t. c #46F7FA",
"y. c #4BF7FA",
"u. c #4DF7FA",
"i. c #4CFAFC",
"p. c #51FAFC",
"a. c #5DFBFD",
"s. c #5FFBFD",
"d. c #69FEFF",
"f. c #77FCFE",
"g. c #79FDFE",
"h. c #89FDFF",
"j. c #89FEFF",
"k. c #98FEFF",
"l. c #BAFEFF",
"z. c #C9FEFF",
"x. c #D4FEFF",
"c. c #E5FEFF",
"v. c #EBFFFF",
"b. c #F3FFFF",
"n. c #FEFFFF",
/* pixels */
"4 u h e h h h h C A A A A j h h g h b C b k b Z j h h h h C C b b Z b h h h h h Z A A A A h h h h h k C b b k A j h h h g z t 4 ",
"< h I N F F F F Y N M N P U M M M N T N M M M P U M M M F T M N N F Y N M M M L Y N N N P U M M M N T N M M m P U F F F F P e < ",
"q l d.d.d.d.d.d.d.d.d.d.d.d.d.d.d.d.d.d.d.d.d.d.d.d.d.d.d.d.d.d.d.d.d.d.d.d.d.d.d.d.d.d.d.d.d.d.d.d.d.d.d.d.d.d.d.d.d.d.d.d.l w ",
"e M d.O.o...` T M M M M M G ^ ! ^ T L M M M M M Y T T T T M M M M M N ^ ! T ^ T M M M M M G ^ ! T ^ L M M M M M U ` ` X.} d.M g ",
"h F d.} ~ H N A j h h h h C C b b Z D j h h g b A h h g C b g h h h b Z b b b A j h g h h C B b b A D j h h h b S m F J } d.F g ",
"h G d.K G m g i z 1 1 2 q z 1 1 1 2 n z 2 2 q x q 1 1 1 2 x 2 1 1 q x q 1 1 1 i z 1 1 1 q f 1 1 1 2 n z 2 2 q x q h l F K d.F h ",
"C ^ d.H m g 1 # 9 8 6 6 9 $ @ # O # 4 s u u u 9 # # # # # 6 r 4 4 r 4 # # # # # r 8 6 6 r # # # @ # 4 s u u u 9 # 1 g l H d.^ C ",
"k U d.M h 1 #   = : : : ;           + - + + + ; X         = & + + = +           = : : : : .         o = + + + - X # 2 g M d.P l ",
"h N d.N h 1 # + = .     + &         - .       + =       o &       . - . .     + -       % %         - .       & = O 2 h F d.M h ",
"h M d.Y j q $ ; o         = o . . = &           ; & & & ; .         + & . X . ; +         = + . . & &           - 8 i C T d.M h ",
"h M d.T Z d 9 -           % : = = ; +           = : : : ; .         o : = = - ;           + : = - ; +           = u v D T d.M h ",
"h M d.P h 1 # = X       . - . .   + ;         + =     . & +         = +     . & .       . = X     + =         + - # 2 g P d.M h ",
"k Y d.M h 1 # o = .     % &         = + + . + ; o         - & o o & =         o -   .   % =         = & . . X : X # 1 h M d.P k ",
"b T d.M h 1 # . = - % & ; .         + ; ; : : -           = - + + ; +           = - % & :           X : 5 : : ;   # 1 h M d.T b ",
"h N d.M h 1 @ . - % + + & o         + = % % % = .       X ;     . . = .       . - + + + = +         & = o + & - . # 1 h F d.N h ",
"h M d.P h 1 # & &     . . = .     + ; .     . % &       - +         % %     . & &       . -       + ;         = = # 1 h Y d.M h ",
"h M d.T C z r :           + = & & ; +           - = & & ; .         o : = * - :           % = & + ; +           ; 8 i C T d.M h ",
"h M d.G h 1 # = +         + : : : : +           * : : : : o         = + .   X - .         o : : : : +           = a n D T d.M h ",
"b I d.M h 1 # + &         = .   . + =         + - . . X O 7 - $ - 6 6 X X .   o =       . = .     + ;         + = # 2 j L d.P b ",
"b T d.M h 1 # . = & + + & +         = = + + + ; X . O # > p c z h n g < > # O . - & + + = +         = = + + + ; X # < h M d.P b ",
"h N d.N h 1 # . ; % % % : .         o ; + + = : o # < w j P K K E E ) F l w , $ 7 * & @ : .         + - + + & ;   # 1 h M d.F h ",
"h M d.P h 1 # & %       + =         = X     X 4 < w l K ] =.>.:.,.>.3.=.] K l c 8 O X   % =         = X       = o # 1 g M d.N h ",
"h M d.T Z z r : .       . - +     + &     X O < A H [ ;.8.t.a.g.j.g.s.i.8.5.#.) h , @ X . - o X   + &         . ; @ 2 h P d.N h ",
"h M d.P h 2 # = .         & : = = 5 +   X O , j  .2.0.u.k.l.z.x.x.x.z.l.k.i.7.1.K h , O X & : & & 5 +           - y z C ^ d.M h ",
"j U d.M h 1 # + &       . = . .   o - X X > h / 1.w.g.l.x.c.v.b.v.b.v.c.x.l.g.w.1.K g , o ; .     + ; .       + = # 2 h F d.F j ",
"Z T d.M h 1 #   = & + + = +         = ; 4 z K 2.w.j.z.c.b.b.n.b.n.b.n.b.b.c.z.j.e.1.U h r @         & = + + + : X # 1 g M d.T C ",
"h F d.M h 1 @ . = & + & : .         o 6 t N #.0.g.z.c.b.n.n.n.n.n.n.n.n.n.b.v.z.g.8.@.S f @ .       o - & + & ;   # 1 h M d.P h ",
"h M d.P h 1 # = &       + =         - > w K ;.i.l.c.b.n.n.n.n.n.n.n.n.n.n.n.b.c.l.i.-.K z 8 .       = o       & + # 1 h N d.N h ",
"g M d.T C d 8 ;           ; + .   + - > k ] 8.k.x.b.b.n.n.n.n.n.n.n.n.n.n.n.n.b.x.k.8.] l u &     + &         . - $ 2 h P d.M h ",
"h M d.Y k t , = .         & ; = = : * 1 F @.w.l.v.b.n.n.n.n.n.n.n.n.n.n.n.n.n.b.c.l.r.%.N i 7 = & : +           - 9 z C ^ d.M h ",
"h F d.N h 1 # & &       . = .     + 7 2 J ;.p.z.v.n.n.n.n.n.n.n.n.n.n.n.n.n.n.b.v.z.a.;.J c @ .   + ; .       + = # 2 h L d.M h ",
"b Y d.M h 1 # . = X .   & +         4 z K :.g.x.b.b.n.n.n.n.n.n.n.n.n.n.n.n.n.n.v.x.g.>./ g o       & %   . X = + # 2 g N d.P b ",
"b Y d.N h 1 #   = : ; - - .         - c Q <.j.x.b.b.n.n.n.n.n.n.n.n.n.n.n.n.n.n.b.x.j.6.o.e @       o & + + + = . @ 1 h M d.U b ",
"h F d.N h 1 # o =       % &         8 e K :.g.x.b.n.n.n.n.n.n.n.n.n.n.n.n.n.n.b.v.x.g.:.( z O .     ; .       + = # 1 g F d.M j ",
"h N d.P h 1 $ : +         - + . X & 4 2 J -.a.z.v.n.n.n.n.n.n.n.n.n.n.n.n.n.n.n.v.z.a.-.J c $ . . & &           ; 6 i C T d.M h ",
"h M d.^ D v u ;           + : : : 5 @ < M %.r.l.c.b.n.n.n.n.n.n.n.n.n.n.n.n.n.b.c.l.r.%.N 1 0 : : 5 o           = u v D T d.M h ",
"h M d.Y b t 4 ; .         & % + + - 7 > k ] 8.k.x.b.b.n.n.n.n.n.n.n.n.n.n.n.b.b.x.k.8.] l t - o + = : . .     + - # 1 h U d.M h ",
"h N d.N h 1 # % =       + = .     . 7 8 e K ;.p.l.v.b.n.n.n.n.n.n.n.n.n.n.n.b.c.l.u.;.J e 8 .     . : = . . X ; o @ 1 h F d.M h ",
"V T d.M h 1 @   ; & % = - .         + a x Y &.0.f.z.v.b.b.n.n.n.n.n.n.n.n.b.v.z.g.0.@.P p @ .       + 0 : : 5 ;   # 1 h M d.T C ",
"b Y d.M h 1 #   = : : : ;         . o ; 3 z R 2.w.j.z.c.b.n.b.b.b.n.n.b.b.c.z.j.e.2._ V r X         o = + + % ; . # 1 h M d.P k ",
"h N d.N h 1 # o =       + &         - X X > h ( 2.w.g.l.x.c.v.b.b.b.v.c.x.l.g.w.2.K g > - *         = .       = = # 1 h P d.M h ",
"h M d.Y h q $ ; +         = + . . = &   X O , h } 1.8.u.k.l.z.x.x.x.z.l.k.i.8.2.W h < O X = o . . & &           - 8 i C T d.M h ",
"h M d.T A z r ;           + : = - ; o     . # , Z ) &.5.q.r.s.g.j.g.a.y.8.5.#./ h , # .   + : = - ; +           = u v D T d.M h ",
"h M d.P h 1 # = X       . = X .   o ; .     X $ t w m J +.1.;.:.:.:.5.*.] K l c < O X   . - X     + -         + - # < j G d.l h ",
"k Y d.M h 1 # o =       + &         = & X . X 5 @ # , w k T ~ W Q ( ) M k w , > 4 X     + *         = & . . o : X # 1 h N d.P k ",
"b T d.M h 1 @   = - & = ;           X : 5 5 5 = . X O # > i c z z n g 1 > # O X - ; & = ; .         X ; : ; 5 =   @ 1 h M d.T b ",
"h N d.M h 1 # . - + + + = +         & = + O + ; X     . o 6 @ O # @ 6 o . .   X - + + + = +         = = + + & - X # 1 h F d.N h ",
"h M d.P h 1 # = &       . =       + ; .       & =       - %         & +       & &       . -       + ;         = = # 1 h Y d.M h ",
"h M d.T Z z 8 :           + = & & ; +           ; & & & ; .         + : = = = :           & = = + - +           ; 8 i C T d.M h ",
"h M d.P h 2 $ - .         + : ; : : +           = : 5 : ; +         = +   . . = .         + ; ; : 5 +           = r n D T d.M h ",
"b Y d.M h 1 @ + =       . - .     + -         + - .     + ; + o + & -         + &       . = .     + ;         + = # 2 h L d.P b ",
"b T d.M h 1 #   = & + + = +         = = + + + - +         - & + + = +           = & + + = +         & = + + + ; X # < j M d.P b ",
"h N d.N h 1 # . = % % % : .         o ; & + & -           + +     . - .       X ; + % & ; . .       + - + & & ;   # 1 h M d.L h ",
"h M d.P h 1 # = &       + =         = X       & +         + X       & +       = &       + =         = X       & o # 1 h M d.N h ",
"h M d.T Z z 8 : .       . ; +     + &         X &       + +         + : - = = :           ; + .   + =         . - # 2 h P d.M h ",
"h M d.P h 2 # - .         & : = = : +           - ; = = 5 +         = +     . = .         = : = = ; +           ; 9 d A ^ d.M h ",
"j H d.M g 1 # + &         - . .   o -         + =       + ; X X . % =         + =       . - .     + -         + = # 1 h F d.F j ",
"C ^ d.H l g 2 # 9 6 4 , 9 ; # # # # 8 8 4 4 4 y $ # # # @ 9 r 6 9 r , # @ # # @ 8 6 4 , 8 3 # # @ # 8 8 4 4 4 r $ 2 h m H d.T C ",
"h H d.J F m g 2 x i i i v 2 1 1 2 1 q c i i i x 2 1 1 1 1 i i 1 1 q f 1 1 1 1 2 x i i i n 2 1 1 1 1 w x i i i c 1 h m F J d.Y h ",
"h F d.( J F l C C g h h l Z h h h g Z c g h h C k h h h h C j h h h Z k h h h Z b h h h b Z h h h g Z j h h h C k m F J K d.F h ",
"e M d.o.} ( ~ T M M M M N T G M N P P N M M M N Y N N N P P M M M M N T U Y U T M M M M M T P M M P U M M M M N Y H K E } d.M g ",
"w l d.d.d.d.d.d.d.d.d.d.d.d.d.d.d.d.d.d.d.d.d.d.d.d.d.d.d.d.d.d.d.d.d.d.d.d.d.d.d.d.d.d.d.d.d.d.d.d.d.d.d.d.d.d.d.d.d.d.d.d.l w ",
", e I N F F F P U M M M N U N N N N T N M M M P U N N M L U N M M F T N M M M P U M M M N Y M N N F T N M M M P Y F F F L P w , ",
"4 i z g h h h h Z j j h C b h h h h C b j h j A k h h h h C C b b Z b h h h g j Z j j h C b h h h h Z b j h j A j h h g e b t , "
};
