/* XPM */
static char *_a4fe7358ce14ee2bc1ee68cf72fef90QHbBAR9VHlNrJbo1[] = {
/* columns rows colors chars-per-pixel */
"64 64 49 1 ",
"  c #0B1219",
". c #0D1219",
"X c #0F141A",
"o c #0F151D",
"O c #0F191D",
"+ c #10171D",
"@ c #10171F",
"# c #10191F",
"$ c #121721",
"% c #121A22",
"& c #141921",
"* c #121C21",
"= c #141C22",
"- c #121A24",
"; c #141A24",
": c #141C26",
"> c #151D26",
", c #141F27",
"< c #151F29",
"1 c #171F2B",
"2 c #17212B",
"3 c #17212C",
"4 c #17242E",
"5 c #19212B",
"6 c #19222E",
"7 c #19222F",
"8 c #19242F",
"9 c #192431",
"0 c #1C2733",
"q c #1A2734",
"w c #1A2933",
"e c #1A2934",
"r c #1C2934",
"t c #1C2B36",
"y c #1C2C36",
"u c #1C2B38",
"i c #1D2B38",
"p c #1C2C38",
"a c #1D2E3B",
"s c #1F2F3C",
"d c #1F313C",
"f c #212F3E",
"g c #21313E",
"h c #223341",
"j c #213441",
"k c #223643",
"l c #223645",
"z c #243645",
"x c #243846",
/* pixels */
"6666666666666>y66666666666666666666666666666666>6g66666666666666",
"666666666666668q666666666666666666666666666666<&t666666666666666",
"666666666666663t836666666666666666666666666666%3w666666666666666",
"6666666666666666p6566666666666666666666666666-%t6666666666666666",
"6666666666666665y9566666666666666666666666665%w96666666666666666",
"66666666666666666y85666666666666666666666666%>y66666666666666666",
"66666666666666666992666666666666666666666622%t866666666666666666",
"666666666666666665a656666666666666666666665%6w666666666666666666",
"6666666666666666669w6666666666666666666666<%a8666666666666666666",
"6666666666666666662y8566666666666666666663%696666666666666666666",
"66666666666666666662y65666666666666666666>%a86666666666666666666",
"66666666666666666665w96666666666666666692%9966666666666666666666",
"666666666666666666666a666666666666666633%<a666666666666666666666",
"66666666666666666666699<11111<11<2<2113,%t6666666666666666666666",
"6666666666666666666662t2%o%+####%o%O@#@o5t6666666666666666666666",
"6666666666666666666662<tttwwwwwtwtwwt9ttu86666666666666666666666",
"666666666666666666662;5ayatuattaattayyaya86866666666666666666666",
"66666666666666666666>-y866666666666666669y6566666666666666666666",
"66666666666666666662%89866666666666666666y8266666666666666666666",
"6666666666666666666>>a66666666666666666665a626666666666666666666",
"666666666666666666>%y966666666666666666666w966666666666666666666",
"666666666666666666%2t6666666666666666666665a65666666666666666666",
"66666666666666666>&t866666666666666666666668t3566666666666666666",
"66666666666666665%6t666666666666666666666662y8566666666666666666",
"6666666666666666>%a96666666666666666666666663t666666666666666666",
"6666666666666662%9966666666666666666666666663t656666666666666666",
"666666666666666;2y6666666666666666666666666665a61966666666666666",
"66666666666666<Oy866666666666666666666666666666t6666666666666666",
"66666666666666%6t666666666666666666666666666662a6666666666666666",
"6666666666666>%t866666666666666666666666666666669666916666666666",
"6666666866686%4066666666666666666666666666666662w61666<966666666",
"XooXooXoXooXX.y96666666666666666666666666666666>5f%++++XX++.+O.o",
"tttttttttttyyaa86666666666666666666666666666663%9trttttttttttttt",
"66666666666668aa666666666666666666666666666666>&wyt6866666666666",
"66666666666666wa96666666666666666666666666666<+9ww66666666666666",
"666666666666662ag8366666666666666666666666666%>ty966666666666666",
"6666666666666669at56666666666666666666666666>%ryt666666666666666",
"6666666666666665tf85666666666666666666666666%2ry8666666666666666",
"66666666666666668ua536666666666666666666666>%wt96666666666666666",
"66666666666666665wg92666666666666666666666<%8ry96666666666666666",
"666666666666666668ag6266666666666666666666%>wt966666666666666666",
"6666666666666666669at26666666666666666666<%9tt666666666666666666",
"6666666666666666665yd62666666666666666662%2wt9666666666666666666",
"66666666666666666669aa566666666666666666>$ttt6666666666666666666",
"66666666666666666666tg656666666666666662%69a66666666666666666666",
"666666666666666666666aa,+%%$%#%%&o%%#%%o%wqt66666666666666666666",
"6666666666666666666689at6632556565255522ttt666666666666666666666",
"666666666666666666665>thttatauytayatuatatu9666666666666666666666",
"66666666666666666666>%hx99t39w8ww998w998aj8666666666666666666666",
"66666666666666666663o3hq66696666668666866gw666666666666666666666",
"6666666666666666666%odt6666666666666666669j826666666666666666666",
"6666666666666666662Xth73666666666666666662ga36666666666666666666",
"666666666666666666%=jw666666666666666666662l82666666666666666666",
"66666666666666666>.af6666666666666666666665af6566666666666666666",
"66666666666666666#<j966666666666666666666665jq266666666666666666",
"6666666666666666&+ga666666666666666666666666tj626666666666666666",
"6666666666666665+6h86666666666666666666666662jy66666666666666666",
"666666666666666%#hw666666666666666666666666689g66666666666666666",
"666666666666666.tg6666666666666666666666666662ga6666666666666666",
"66666666666666%%zr66666666666666666666666666662l8566666666666666",
"6666666666666>.gy666666666666666666666666666666yd656666666666666",
"6666666666666+5g86666666666666666666666666666662jw26666666666666",
"&&;;&&&%;;%%= gy66666666666666666666666666666662wj3>&&>&;;=;>&&;",
"999t99t9t94t4wk96666666666666666666666666666666=8ga9w996t99099w9"
};
