/* XPM */
static char *_817971fd42844fac5716bb7d0e5c95ahH72DKFMiYF3xLed[] = {
/* columns rows colors chars-per-pixel */
"64 64 22 1 ",
"  c #0A0F14",
". c #19222E",
"X c #193643",
"o c #193843",
"O c #193945",
"+ c #194D58",
"@ c #194E5A",
"# c #194E5C",
"$ c #19505C",
"% c #19606C",
"& c #19626F",
"* c #19646F",
"= c #196571",
"- c #197783",
"; c #197784",
": c #197B86",
"> c #198E99",
", c #198F9B",
"< c #19B3BB",
"1 c #36F6FA",
"2 c #69FEFF",
"3 c #B5B9BD",
/* pixels */
"3333333333333333333333333333333333333333333333333333333333333333",
"................................................................",
"................................................................",
"................................................................",
"................................................................",
"oooooooooooooooooooooooooooooooooooXXooooooooooooooooooooooooooo",
"##############################@@++@+$@##########################",
"==============================*&%&&&&*==========================",
"::::::::::::::::::::::::::::::------:-::::::::::::::::::::::::::",
"2222222222222222222222222222222222222222222222222222222222222222",
"::::::::::::::::::::::::::::::;:------::::::::::::::::::::::::::",
"==============================*&%&&&&===========================",
"##############################@@++++$@@@@@@###@#################",
"oooooooooooooooooooooooooooooooooXooXooooOoooOoooooooooooooooooo",
"................................................................",
"................................................................",
"                                                                ",
"................................................................",
"3333333333333333333333333333333333333333333333333333333333333333",
"................................................................",
"................................................................",
"................................................................",
"................................................................",
"................................................................",
"................................................................",
"................................................................",
"................................................................",
"................................................................",
"................................................................",
"................................................................",
"oooooooooooooooooooooooooooooooooooooooooooooooooooooooooooooooo",
"===============================================================*",
",,,,,,,,,,,,,,,,,,,,,,,,,,,,,,,,,,,,,,,,,,,,,,,,,,,,,,,,,,,,,,,,",
"<<<<<<<<<<<<<<<<<<<<<<<<<<<<<<<<<<<<<<<<<<<<<<<<<<<<<<<<<<<<<<<<",
"1111111111111111111111111111111111111111111111111111111111111111",
"1111111111111111111111111111111111111111111111111111111111111111",
"<<<<<<<<<<<<<<<<<<<<<<<<<<<<<<<<<<<<<<<<<<<<<<<<<<<<<<<<<<<<<<<<",
",,,,,,,,,,,,,,,,,,,,,,,,,,,,,,,,,,,,,,,,,,,,,,,,,,,,,,,,,,,,,,,>",
"==============================================================&*",
"oooooooooooooooooooooooooooooooooooooooooooooooooooooooooooooooo",
"................................................................",
"................................................................",
"................................................................",
"................................................................",
"................................................................",
"................................................................",
"................................................................",
"................................................................",
"................................................................",
"................................................................",
"................................................................",
"................................................................",
"................................................................",
"oooooooooooooooooooooooooooooooooooOXooooooooooooooooooooooooooo",
"##############################@@++@+$@##########@###############",
"==============================*&%&&&&*==========================",
"::::::::::::::::::::::::::::::--------::::::::::::::::::::::::::",
"2222222222222222222222222222222222222222222222222222222222222222",
"::::::::::::::::::::::::::::::-:------::::::::::::::::::::::::::",
"==============================*&%&%&**==========================",
"############################@@@@+++@$@@@########################",
"ooooooooooooooooooooooooooooooOoooXOoooOoooooooooooooooooooooooo",
"................................................................",
"                                                                "
};
