/* XPM */
static char *_d36cac49da24be08ced64a4f0bc36273YGdSIGwS8kukR2Z[] = {
/* columns rows colors chars-per-pixel */
"64 64 239 2 ",
"   c #0D0D0D",
".  c #100F0F",
"X  c #0A0F14",
"o  c #0C1214",
"O  c #0F151C",
"+  c #0D1B1D",
"@  c #141414",
"#  c #171718",
"$  c #141B1C",
"%  c #1C1C1C",
"&  c #131D22",
"*  c #0E2426",
"=  c #0E262B",
"-  c #142324",
";  c #1C2324",
":  c #19232E",
">  c #132C2D",
",  c #1C2C2C",
"<  c #0E2E35",
"1  c #192733",
"2  c #132F32",
"3  c #192D39",
"4  c #0A383E",
"5  c #1F3234",
"6  c #133538",
"7  c #1A323C",
"8  c #1E393C",
"9  c #232424",
"0  c #292727",
"q  c #262B2C",
"w  c #2C2C2C",
"e  c #312F2F",
"r  c #292F31",
"t  c #263334",
"y  c #2D3333",
"u  c #23393B",
"i  c #2E3A3B",
"p  c #343434",
"a  c #313638",
"s  c #323A3A",
"d  c #3B3B3B",
"f  c #093C43",
"g  c #193541",
"h  c #123D42",
"j  c #1B3B44",
"k  c #193D4A",
"l  c #2A3E40",
"z  c #343E48",
"x  c #0E4047",
"c  c #15454A",
"v  c #19474A",
"b  c #19414D",
"n  c #0D4C53",
"m  c #194652",
"M  c #144C52",
"N  c #1A4B54",
"B  c #194E5B",
"V  c #0B565E",
"C  c #1A5359",
"Z  c #19515E",
"A  c #274346",
"S  c #2E4345",
"D  c #21464A",
"F  c #22494C",
"G  c #2D4B4D",
"H  c #374646",
"J  c #224D50",
"K  c #2C4E51",
"L  c #225154",
"P  c #2C5154",
"I  c #22555A",
"U  c #2C565A",
"Y  c #24595E",
"T  c #2C5B5E",
"R  c #3C5859",
"E  c #075860",
"W  c #195562",
"Q  c #165B65",
"!  c #195D6A",
"~  c #225C62",
"^  c #2B5F64",
"/  c #1C6368",
"(  c #1A626E",
")  c #196572",
"_  c #116872",
"`  c #156B73",
"'  c #1B6B76",
"]  c #196F7C",
"[  c #226166",
"{  c #2B6065",
"}  c #22666C",
"|  c #2A676C",
" . c #24696F",
".. c #2A6A6F",
"X. c #236D73",
"o. c #2A6C72",
"O. c #356D70",
"+. c #25747B",
"@. c #297279",
"#. c #434242",
"$. c #484646",
"%. c #4C4B4B",
"&. c #504E4E",
"*. c #425456",
"=. c #545454",
"-. c #57585A",
";. c #5C5C5C",
":. c #605E5E",
">. c #4F6C6F",
",. c #636363",
"<. c #6C6C6C",
"1. c #6C747C",
"2. c #657979",
"3. c #737373",
"4. c #727779",
"5. c #7B7B7B",
"6. c #087B88",
"7. c #197583",
"8. c #197986",
"9. c #197B89",
"0. c #267B84",
"q. c #317E81",
"w. c #6C7E86",
"e. c #1A828E",
"r. c #198593",
"t. c #178896",
"y. c #198996",
"u. c #198C99",
"i. c #1A949F",
"p. c #22868E",
"a. c #3C898B",
"s. c #0895A3",
"d. c #1999A3",
"f. c #1A9CA6",
"g. c #159EAD",
"h. c #219BA2",
"j. c #17A4AD",
"k. c #1CA3AD",
"l. c #09ACBC",
"z. c #17A7B3",
"x. c #19A7B2",
"c. c #1CA9B2",
"v. c #18AAB7",
"b. c #18B3BE",
"n. c #22A3AB",
"m. c #22ACB4",
"M. c #4E898C",
"N. c #728A8E",
"B. c #6A969A",
"V. c #4099A3",
"C. c #6C9CA3",
"Z. c #76A7AC",
"A. c #05BCCB",
"S. c #14B5C2",
"D. c #19B6C1",
"F. c #17BAC5",
"G. c #19B9C2",
"H. c #31B5C0",
"J. c #5BBBC3",
"K. c #19C3CC",
"L. c #0ACBD5",
"P. c #0DC9D4",
"I. c #15CBD5",
"U. c #17C9D7",
"Y. c #19CFD7",
"T. c #12CDD9",
"R. c #13D5DD",
"E. c #1DD1DF",
"W. c #2DCFDA",
"Q. c #09DDE7",
"!. c #10D7E1",
"~. c #13DCE4",
"^. c #36DBE5",
"/. c #0CE5EB",
"(. c #0DE3EC",
"). c #12E1E7",
"_. c #12E4EB",
"`. c #04EEF7",
"'. c #0AEDF5",
"]. c #08EFF8",
"[. c #12E9F1",
"{. c #05F5FA",
"}. c #09F5F9",
"|. c #01FBFE",
" X c #0DF9FE",
".X c #11F6FC",
"XX c #15FAFF",
"oX c #1BFAFF",
"OX c #30F4FA",
"+X c #37F8FD",
"@X c #4DD3DC",
"#X c #66D4DC",
"$X c #4EECF2",
"%X c #47FAFE",
"&X c #75EFF5",
"*X c #6BFCFF",
"=X c #828282",
"-X c #888484",
";X c #8B8B8B",
":X c #918F8F",
">X c #8A9898",
",X c #949494",
"<X c #9B9B9B",
"1X c #97ACAE",
"2X c #A3A3A3",
"3X c #ADADAD",
"4X c #A8B4B4",
"5X c #B3B3B3",
"6X c #B5B9BD",
"7X c #BCBCBC",
"8X c #B5BEC2",
"9X c #B8C6C9",
"0X c #ADCFD2",
"qX c #B1DFE4",
"wX c #88F8FB",
"eX c #92F2F6",
"rX c #AAFBFE",
"tX c #B6F8FB",
"yX c #C3C3C3",
"uX c #C6CBCC",
"iX c #CCCCCC",
"pX c #CCD8DA",
"aX c #D4D4D4",
"sX c #DCDCDC",
"dX c #E0DFDF",
"fX c #D2E6E7",
"gX c #C8FBFD",
"hX c #D9FCFD",
"jX c #E3E3E3",
"kX c #E6EAEA",
"lX c #EBEBEB",
"zX c #E5FAFB",
"xX c #EEFEFE",
"cX c #F4F4F4",
"vX c #F8F7F7",
"bX c #F4FDFE",
"nX c #FAFAFA",
"mX c #FCFCFC",
"MX c #FFFFFF",
/* pixels */
"9X6X6X6X6X6X6X6X6X6X6X6X6X6X6X6X6X6X6X6X6X6X6X6X6X6X6X6X8X9X9X0X|.9X9X9X8X6X6X6X6X6X6X6X6X6X6X6X6X6X6X6X6X6X6X6X6X6X6X6X6X6X6Xz ",
"1.: : : : : : : : : : : : : : : : : : : : : : : : : : : 7 b W ) |.) Z b 6 : : : : : : : : : : : : : : : : : : : : : : : : : : O ",
"1.: : : : : : 1 : : 1 1 : : : : : : : : : : : : 1 3 1 3 m W ' e.|.e.' Q k 3 1 1 1 : : : : : : : : : : : : 1 : 1 : : : : : : : O ",
"1.: : : : 1 1 1 1 3 3 3 1 1 : : : : : 1 : 1 3 g g k m B ` 9.i.k.|.j.u.9.( B k j 3 3 1 1 : : : : : : 1 1 3 7 3 3 1 1 : : : : : O ",
"1.: : : : 1 3 j k m ! N k g 3 1 : : 1 3 7 k m W ) 7.8.r.f.v.F.K.|.K.G.v.d.9.7.! Z m k 7 3 : : : 1 1 g k m Q m k g 3 1 1 : : : O ",
"1.: : : 1 3 k Z ) g.oXr.! B k 3 3 3 g k B ( 7.y.z.P./.'.{.|.|.|.|.|.|.{.'.Q.T.z.y.7.( Z b g 3 3 3 k Z ! 9.XXg.) Z k g 1 : : : O ",
"1.: : 1 3 k ! 9.T.%X&XoXz.7.W m k m Z ' r.z.Q.'.oX*XtXhXxXbXMXMXMXMXbXxXhXtX*XoX].Q.z.9.' W b k m W 7.z.oX*X%XR.9.! k 7 1 : : O ",
"1.: 1 3 m ! r.!.%XxXbXgXXXU.t.] ) ] r.S./.oXwXhXbXmXMXMXMXMXMXMXMXMXMXMXMXMXMXbXhXwXoX(.S.y.7.) ] r.T.XXgXbXMX%X!.9.! k 3 : : O ",
"1.1 3 g W 9.!.%XxXMXMXMXzX+XY.x.j.D.(.+XrXbXMXMXmXmXmXmXmXnXnXvXnXnXnXMXMXMXnXMXMXMXxXtX+X/.S.k.x.U.+XzXMXMXmXbX%X!.9.W k < 1 O ",
"1.1 3 m ] !.%XxXMXcXaXkXMXgX X_._.oXrXbXMXMXMXmXmXmXvXvXcXlXdXaXiXaXsXjXlXcXvXvXnXMXMXMXxXrXXX_._. XgXMXnXcXaXkXxX%X!.] m 3 : O ",
"1.1 g W z.+XbXMXsXlX=.3.MXMXhX+X*XzXmXmXMXmXmXvXcXjXjXsXaXyX7X5X3X2X2X2X2X2X2XaXlXcXvXnXMXMXzX*X%XhXmXMXsXcX=.3.MXxX+Xj.Z g 1 O ",
"1.1 g Q Q.gXMXMX,X9 @ 3.MXMXMXbXbXMXmXMXvXvXlXjXdXaXiX7X3X;X3.,.;.-.;.<.5.=X=X=X4.2XdXcXvXnXnXbXxXMXMXMX:X9 # 3.mXlXeXQ.W g 1 O ",
"1.1 g W T.wXnXnXsX3.3.sXMXnXMXnXmXmXnXcXlXjXdXiX7X<X=X:.#.p w w w w e p d #.$.=.:.:.=.,XdXcXvXnXmXMXnXMXdX3.3.sXcX1X^.T.W g 1 O ",
"1.: g B u.oXeXcXcXMXnXMXnXMXnXMXnXnXcXjXdXaX7X;X%.d p w 0 % % % # % % ; 0 0 w p d d #.d d 7XkXcXcXMXmXmXmXmXvXkX2X^. Xu.Z g 1 O ",
"1.: 3 b ) z.oXwXfXnXMXnXnXnXnXnXvXlXdXaXyX:X%.p 0 ; 9 9 0 w w w e w w 0 9 ; % 9 w e p d d d ;XdXlXvXnXnXmXbXkX>X!..Xv.( k 3 : O ",
"1.: 1 g B 7.S.'.wXlXvXnXnXnXnXcXjXdXiX2X:.s 0 9 9 0 0 9 % @ .   . . # % ; 0 0 9 ; 9 0 e p p p =.sXlXvXcXmXkX1XW.'.D.7.B g 1 1 O ",
"1.: 1 3 k Q u.U.oXtXvXnXnXvXcXdXaX7X=Xd w 9 ; w 9 $   o @ + + * + $ + $ + @ % 9 w ; % 9 w e p e d aXkXcXvXuX^..XU.u.Q k 3 : : $ ",
"1.: : : 3 B 8.b.'.*XvXvXvXcXdXaX7X<.p 0 % 9 9 # o + + * > > 2 6 6 6 6 2 > > - $ % 0 9 % ; 9 w 0 q %.aXlXcXjX+X_.b.8.B 7 1 : & O ",
"1.: : : 3 B 8.F. XhXnXcXcXdXaX5X,.p 9 % w % . + * * 6 4 f v c c c v c v c h 6 2 - & ; e % # 9 0 0 0 <.sXlXlXtXXXG.9.N 3 : : 1 & ",
"1.: : 1 g W u.(.rXnXvXcXjXaX6X3.p ; % 0 # o + - > f c n V / / C C / / / / ~ L v 8 , ; ; w % # 9 9 9 % 2XsXlXlX&X_.u.W g 1 : : O ",
"1.: 1 3 k ' S.OXzXnXcXlXiX7X-Xd 9 % 0 # @ + * 6 c C / d.L./.}.|.+.|.}./.I.j. .[ C v 5 ; ; w % % 9 9 % % yXsXlXfXOXF.7.k 1 1 : O ",
"1.: 1 g Z r./.rXnXvXlXsXyX2X#.0 % w % o + = 6 M V j./.}./.K.j.p.) e.j.I./.|.).j.} I v 5 , 9 y $ % ; % % :.iXdXlX&XQ.7.B g 1 : O ",
"1.: 1 k ! c.XXhXvXlXjXyX3X,.e ; 9 ; o + * 4 M Q L.}.R.h.`  ./ Y I ~ [  .X.h.R.}.Y. .Y F u , q 0 % % % % @ 3XiXjXqX Xv.( k 1 : O ",
"1.: 3 m 7.!.*XcXlXlXiX5X:Xd 9 9 9 . + > 6 M ` Q./.d. ./ / L J F v F J L ~  .X.k.).).+.~ F 8 , w 9 9 9 % @ =.yXsXaX%X!.7.k 1 : O ",
"1.: 3 Z y.'.gXcXlXjX5X<X=.e % w % o * 6 M / Q.R.X./ ~ L F 8 u 8 u 5 u 8 F L ~  .+.R.~. .Y F u q e 9 9 % # . 5XiXsX#X'.r.W g 1 O ",
"1.1 j ! c.oXzXlXkXiX2X5.d 9 9 9 o * 2 c C L.).` / I v 8 t , , % ; ; 9 , 5 8 F I | +._.Y.o.U A t r 0 9 9 % @ =X5XsX0X Xz.! g 1 O ",
"w.1 k 7.T.%XcXlXsX2X:X=.e % 0 $ + > h V j.}.j./ L A 5 , % % $ $ % % # % % , 5 A I  .n.}.c...P i r w 0 9 % @ 9 3XiX7XOXU.7.k 1 O ",
"1.3 m 9.Q.eXcXjXaX,X=X#.w ; 0 X + 6 M / ).R.X.~ v 5 9 % # ;.,X3X3X-X&.w $ % ; 5 D ~ X.R.).@.{ F t y w w % # @ 2X8XyX$XQ.9.m 3 O ",
"1.1 B r.'.tXlXsXiX;X<.d 0 9 9 X - h C d.|.i./ L 8 , % w ;XiXyX7X2X;X,.$.0 # % , 8 L X.d.{.n.} P l y r w 9 # @ ,X3XyX#X'.r.B 3 O ",
"w.k ) f.`.hXkXsX5X5.-.p 9 0 # $ > v / P./.X.~ J 5 % % =XuXyX9X4X>X2.%.H d 9 @ % 5 F ~ +._.Y.o.U l y p p w % @ 3.2X7XJ.}.f.) k = ",
"N.Z 9.v.{.kXfXaX<X:.#.w % w # $ > v / (.I. .L 8 , % %.5X4X4X1X1XB.O.R G i w # % , 8 I X.U._.o.U A y p d e 9 @ =.:X7XZ.|.v.9.W 3 ",
"B.) u.F.|.lXsXiX3.%.d 9 # e . & 6 v / }.j.[ F 8 9 % ,.,X>X>XC.V.a.q.{ G i 0 # . ; 8 F [ c.}.o.^ G y p d p 9 # e -X7XN.|.F.u.' f ",
"C.] j.K.|.kXaXyX=.d e 9 @ e . - 6 F / |.p.C F 8 ; # :.<.3.M.M.R.|.Y.o.L u 9 % . % 5 F ~ p.|...T G i e d p 9 # # 5.5X4.|.K.j.] n ",
"|.|.|.|.|.jXaXyX#.d e 9 # w . - 6 v / X.X.Y F 5 % % #.#.R O.@.{.|.}.X.C 5 ; $   - 5 F Y X.+.| T G i p d p 9 @ % 5.2X<.|.|.|.|.|.",
"C.] j.K.|.fXiXyX=.p e 9 # w @ - 8 N [ |.p.~ F 8 ; % p d H T o.Y.{.I./ v , % @   $ 5 F ~ p.|...T G i s #.s 9 $ w 3.<X2.|.K.f.] V ",
"B./ u.b.{.fXyX7X,.p p 9 % w @ - 8 N } {.c.[ F u ; % 0 p i F U X.` / J 8 - $ .   ; 8 J [ c.}.o.T K i d #.p 9 @ $.3.:XM.`.b.u./ x ",
"N.Z 7.z.`.qXyX5X5.p e 0 % 0 % $ 6 C ../.I. .L 8 , % % w q u v v J v 8 > - #   . ; A C  .Y.[.o.T G s %.#.w % . :.3.-XV.}.x.7.Z < ",
"N.h ! d.`.eXyX5X;Xp w 0 % % 9 - 5 v [ Y./.@.[ F , 9 # % 9 , , , 2 > - $ $     $ , v ~ @.).Y...U S p -.#.w # . <.3.4.H.'.d./ k = ",
"1.3 m 9./.&XyX3X<Xw y w 9 % w $ , J [ k.|.h. .F 8 , % % # % % % $ $ $ @     . ; u J  .h.}.n...U S s <.d 0 # . <.3.,.E.~.9.B 3 O ",
"1.1 b ] U.+XyX2X<Xp w 0 9 $ 0 % > 8 I X._.R.X.Y F t ; % @ .   @ @ .       . - , F ~ X.R.).@.{ G l ;.5.p 0 @ # ,.3.&.[.T.] k 1 O ",
"1.1 7 ) v.{.0X2X<X,.9 w 9 % 9 0 ; 5 J [ c.}.k. .Y v q ; ; % @         @ $ ; , A L  .k.}.m...U G s 5.:.e 9 @ %.-.,.O.{.z.( g 1 O ",
"1.: 7 W t.'.&X2X<X5.9 9 0 9 % w ; , A U  .Y._.+.} Y D 8 5 ; ; & $ % % - , 8 v Y } +._.Y.o.T G s a ,XH 0 @ . -.:.-.m.'.u.W g : O ",
"1.: 3 m 7.R.^.2X,X=Xd 9 9 9 ; 9 0 ; 8 F T  .).R.+. .Y C v A 8 t 5 8 8 8 F L Y  .+.R.)...^ K S d :X5.p 9 @ p =.;.#.!.!.7.m 3 : O ",
"1.: 1 k ( k..X#X;X-X,.% % 9 9 9 0 q , u F { +.)._.n.X.| [ J N F v J J Y ~  .X.n._.~.0.{ P S p N.2X#.w % @ %.%.&.0.{.z.( k 1 : O ",
"1.: 1 g B 8./.$XN.=X3.p % % 9 9 0 r q t i F { X.Y.}.R.h.+.| [ ~ Y Y [  .@.h.R.}.Y.o.{ P S l s 3X5.p % @ w %.&.d F./.9.W g : : O ",
"1.: 1 1 k ] S.}.Z.5.5.;.@ % % 0 0 0 w q t A G ^ o.m.).}./.Y.c.p.X.p.c.Y./.}.).m.o.{ P S s s 3X2Xd 0 % . $.$.$.X.].S.7.k 3 : : O ",
"1.: : 1 g W t.(.^.3.3.,.#.@ $ % 9 w e r 0 t i G T | @.n.Y./.{.|.+.|.}./.Y.n.@...T K S s s 5X5X=.w % @ d z $.e P.(.u.W g 1 : : O ",
"1.: : 1 3 B 9.F.|.J.<.<.;.w @ % % 0 e a w t t l G U ^ | o.o.o.........o.o.| ^ U G S s s 7X5X,.p 9 @ w d #.d r.|.F.9.k g : : : O ",
"1.: : : g m 7.D.[.OX1X<.:.&.$ @ % 9 0 e p d r y i S G U U T T T T ^ T T ^ U G S l s :XyX3X;.w 9 @ @ d d %.*._.[.D.7.B 3 : : : $ ",
"1.: 1 1 g ! u.U.oXwXyX3.:.-.$.@ . % 9 0 e d d r y a i l A G G G G G G G S S i s a 3XyX:X#.e % @ @ d p $.-.,.W..XU.u.Q j 3 : & O ",
"1.1 1 g B 7.F.'.wXpX<X,.:.;.&.#.# @ # % 9 w d d %.%.y p a a i s s s s i s a 3.2X8X2X:.p 0 % @ % p w #.%.;.<.N.^.'.F.8.B g 1 1 O ",
"1.1 3 k ) z.oXeXpX2X,.-.:.-.=.%.#.9 @ # % 9 w p d -.,.,.;.=.#.d a $.;.3.<X3X7X<X,.d w 9 # . 9 p w d %.=.-.:.<.B.@X Xv.) m 3 1 O ",
"1.1 g B u.XXeXaX<X,.=.=.=.-.=.%.#.#.w . @ # % 9 q p d %.3.,X2X5X7X5X3X<X;X<.%.p w 9 % . X w w w d $.&.=.=.=.;.<.w.W.{.u.B g 1 O ",
"1.1 g W T.$X0X,X<XsX<X%.&.&.$.$.$.#.p p % @ @ % % 9 0 w p d =.,.,.-.#.d e w 0 9 % @ @ % w w w w d $.%.%.<XsX<X&.=.>.~.T.W g 1 O ",
"1.1 g W (.@X4.&.5XcX=.9 $.d 0 ' ~ d d d p w % . @ @ % % 9 0 w w w w 9 9 % % # @   % w 0 9 w ; c ' d $.%.5XcX=.9 #.w S.Q.W g 1 O ",
"1.1 g B g.}.q.H #.% # 9 d > s.{.Q.d.w p d e e w 0 @ X @ # # # # # % # @ @ . @ 9 0 0 9 0 9 @ 6.Q.`.k.S #.#.% # % q ! `.g.W g 1 O ",
"1.1 3 m 7.!.{.0.r 9 ; w 9 l.}.~.~.|.T.' 9 p p r 0 0 0 0 9 % @ . . # % 9 9 9 9 9 9 0 9 # E A.{._.~.}.D.d r 9 ; & ) `.!.] m 3 1 O ",
"1.1 1 g W 9.!.].0.a q @ 6.{.U.z.g.S.Q.{.L.) ; 0 r w w 9 9 9 9 ; % % % ; 9 9 9 9 % o E A.].Q.D.g.v.U.`.i.w r 9 _ `.!.r.W g 3 1 O ",
"1.: 1 g k ! 9.!.`.' V S.|.T.y.] ) 7.t.S.(.|.Q.s.M # # 9 9 0 0 w 0 9 9 % % # X f s.L.|.(.S.r.7.' 7.r.P.|.F.Q _ `.!.r.Q k 3 1 : O ",
"1.: 1 1 g k ! 9.T.`.Q.|.z.7.W m k m W ) 9.z.!.'.|./.L.s._ x * X . - f _ s.A.Q.|.'.!.z.9.] Z k k m W 7.z.{.Q.`.T.9.! m 3 1 : : O ",
"1.: : : 1 g k Z ( g.|.r.! B k 3 3 3 g k B ( 7.y.z.T.(.`.{.{.|.|.|.|.|.{.'.Q.T.x.t.7.) B k g 3 1 3 k B ! 7.|.g.' W k g : 1 : : O ",
"1.: : : 1 1 1 k k m Q m k g 3 1 : : 1 3 g k m W ( ] 8.r.d.v.b.K.|.F.b.z.d.8.] ( B m k g 3 1 1 : 1 3 g k k Q m k g 3 : : : : : O ",
"1.: : : : : 1 1 3 g g 3 1 1 1 : : : : : 1 1 3 g k k m B _ 7.r.d.|.d.9.7.Q m m g 3 3 1 1 1 : : : : 1 1 3 3 g g 3 1 1 : : : : : O ",
"O X X X X X X X X X X X X X X X X X X X X X X X X + + + < 4 n V |.V n f = + O O X X X X X X X X X X X X X X X X X X X X X X X X "
};
