/* XPM */
static char *_5a738501c6d4d3abecdf7e45a24182aVBjTUPHPf7DPDqCe[] = {
/* columns rows colors chars-per-pixel */
"64 64 119 2 ",
"   c #0A0F14",
".  c #0F151D",
"X  c #0F252D",
"o  c #19222E",
"O  c #0F2B33",
"+  c #192733",
"@  c #192A35",
"#  c #192D39",
"$  c #0F343D",
"%  c #19313C",
"&  c #193541",
"*  c #193843",
"=  c #193E4A",
"-  c #343E48",
";  c #0F444D",
":  c #19414D",
">  c #0F4A53",
",  c #194651",
"<  c #194A56",
"1  c #194E5C",
"2  c #19525E",
"3  c #34454E",
"4  c #0F5A64",
"5  c #0F5F69",
"6  c #195661",
"7  c #195A65",
"8  c #195C69",
"9  c #19626E",
"0  c #0F6E77",
"q  c #196571",
"w  c #196A76",
"e  c #196E7A",
"r  c #0F727C",
"t  c #19727D",
"y  c #196F80",
"u  c #0F7780",
"i  c #0F7C86",
"p  c #197682",
"a  c #197B86",
"s  c #197C88",
"d  c #19818C",
"f  c #198691",
"g  c #198B95",
"h  c #198E9A",
"j  c #0F949C",
"k  c #1A939D",
"l  c #1B96A0",
"z  c #179EA7",
"x  c #1C99A4",
"c  c #1C9EA9",
"v  c #1AA3AD",
"b  c #19ABAE",
"n  c #1CA7B1",
"m  c #1CABB4",
"M  c #17AFB8",
"N  c #19AFB9",
"B  c #1BB2BA",
"V  c #21ACB6",
"C  c #22B2BC",
"Z  c #1DBBC3",
"A  c #1ABFC9",
"S  c #22B6C0",
"D  c #22BCC5",
"F  c #23BFC8",
"G  c #1DC0C7",
"H  c #1CC4CC",
"J  c #1DC8CF",
"K  c #1DD2D2",
"L  c #1DD7D8",
"P  c #1BDCDD",
"I  c #24C3CC",
"U  c #22C8CF",
"Y  c #25C7D0",
"T  c #24CCD3",
"R  c #27D0D7",
"E  c #27D4DB",
"W  c #29D6DD",
"Q  c #29D7DE",
"!  c #2BD7DF",
"~  c #27D8DF",
"^  c #2AD8DF",
"/  c #27D9E0",
"(  c #27DAE1",
")  c #27DCE2",
"_  c #27DCE3",
"`  c #2BDDE4",
"'  c #2BDEE4",
"]  c #2BDFE5",
"[  c #2CDEE4",
"{  c #19E5E5",
"}  c #1FEFED",
"|  c #1CEFEE",
" . c #1CF3F2",
".. c #1FF5F2",
"X. c #27E0E6",
"o. c #2BE1E7",
"O. c #2CE1E7",
"+. c #2BE3E9",
"@. c #2CE1E8",
"#. c #2CE2E9",
"$. c #2CE3E9",
"%. c #2BE4E9",
"&. c #2CE4E9",
"*. c #2CE4EA",
"=. c #2EE5EB",
"-. c #2EE6EB",
";. c #2EE8ED",
":. c #2FE8EE",
">. c #2EE9EE",
",. c #2FEBF0",
"<. c #2FECF1",
"1. c #2FEFF3",
"2. c #31EDF2",
"3. c #31EEF2",
"4. c #21F5F3",
"5. c #36F6FA",
"6. c #69FEFF",
"7. c #B5B9BD",
"8. c #B5BABE",
/* pixels */
"7.7.7.7.7.7.7.7.7.7.7.7.7.7.7.7.7.7.7.7.7.7.7.7.7.7.7.7.7.7.7.7.7.7.7.7.7.7.7.7.7.7.7.7.7.7.7.7.7.7.7.7.7.7.7.7.7.7.7.7.7.7.7.- ",
"o o o o o o o o o o o o o o o o o o o o o o o o o o o o o o o o o o o o o o o o o o o o o o o o o o o o o o o o o o o o o o o . ",
"o o o o o o o o o o o o o o o o o o o o o o o o o o o o o o o o o o o o o o o o o o o o o o o o o o o o o o o o o o o o o o o . ",
"o o o o o o o o o o o o o o o o o o o o o o o o o o o o o o o o o o o o o o o o o o o o o o o o o o o o o o o o o o o o o o o . ",
"o o o o o o o o o o o o o o o o o o o o o o o o o o o o o o o o o o o + o o o o o o o o o o o o o o o o o o o o o o o + o o o . ",
"* * * * * * * * * * * * * * * % * * * * * * * & * & * * * & * * * & & * * * * & * * * * * * * * * & * * * & * * * & & * * & * O ",
"1 1 < < 1 < 2 2 1 1 1 1 1 1 2 1 1 1 1 1 1 1 1 2 1 1 1 1 1 1 1 1 1 1 1 1 1 1 1 1 1 1 1 1 1 1 1 1 1 1 1 1 1 1 1 1 1 1 1 1 1 1 1 ; ",
"9 9 9 9 9 9 9 9 q q q q q q q q q q q q q q q q q q q q q q q q q q q q q q q q q q q q q q q q q q q q q q q q q q q q q q q 4 ",
"p a p a p p p a a a a a a a a a a a a a a a a a a a a a a a a a a a a a a a a a a a a a a a a a a a a a a a a a a s a a a a a r ",
"6.6.6.6.6.6.6.6.6.6.6.6.6.6.6.6.6.6.6.6.6.6.6.6.6.6.6.6.6.6.6.6.6.6.6.6.6.6.6.6.6.6.6.6.6.6.6.6.6.6.6.6.6.6.6.6.6.6.6.6.6.6.6.6.",
"p a p p p p a a a a a a a a a a a a a s a a a a a a a a a a a a a a a a a a a a a a a a a a a a a a a a a a a a a a a a a a a r ",
"9 9 9 9 9 9 9 9 q q q q q q q q q q q q q q q q q q q q q q q 9 q q q q q q q q q q q q q q q q q q q q q q q q q q q q q q q 4 ",
"1 < < 2 1 < 1 1 1 1 1 1 2 1 1 1 1 1 1 1 1 1 1 1 2 1 1 1 2 2 2 1 1 1 1 1 1 1 1 1 2 1 1 1 1 1 1 1 2 1 1 1 1 1 1 1 1 1 1 1 1 1 1 ; ",
"* * * * * * * * * * * * * * * * & * * * * * * * * & * * * % * & * * * * * * * * * * * & * * * * * & * * * * * * * * * * * * * O ",
"o o o o o o o o o o o o o o o o o o o o o o o o o o o o o o o o o o o o o o o o o o o o o o o o o o o o o o o o o o o o o o o . ",
"o o o o o o o o o o o o o o o o o o o o o o o o o o o o o o o o o o o o o o o o o o o o o o o o o o o o o o o o o o o o o o o . ",
"                                                                                                                                ",
"o o o o o o o o o o o o o o o o o o o o o o o o o o o o o o o o o o o o o o o o o o o o o o o o o o o o o o o o o o o o o o o o ",
"7.7.7.7.7.7.7.7.7.7.7.7.7.7.7.7.7.7.7.7.7.7.7.7.7.7.7.7.7.7.7.7.7.7.7.7.7.7.7.7.7.7.7.7.7.7.7.7.7.7.7.7.7.7.7.7.8.7.8.8.8.8.8.3 ",
"o o o o o o o o o o o o o o o o o o o o o o o + @ + + @ # @ @ # # @ # # # # # @ # # # + @ + o + o o + @ @ # % * = = : = : = = $ ",
"o + o + o o o o o o o o o o o o o o o o o + @ % % = = = = = = = : = : : : : : : : : = * & % # @ @ @ # % % = : , < 2 2 2 2 2 2 ; ",
"+ # + + + o o o o o + o o + o o o o o o @ # & = , 1 1 2 2 2 2 2 2 2 2 1 2 2 2 2 2 2 2 2 , : & % % # & = : 1 7 9 9 q 9 q 9 9 q 2 ",
", , : * % + o + # # # # # # # + + o o o # & : 1 8 9 9 q 9 q 9 q q q 9 q q q w 9 q w 9 9 8 6 , : : * : 1 7 9 x D D I D D D Z I B ",
"y y w 6 : * @ @ # * = , = , & & # @ o + % = 1 d C I I I I I Y Y Y Y Y Y R Y Y T R R R R S t 8 2 1 < 2 ] t a Q O.E E E E E R E E ",
"} } L l 8 = * & * , 2 7 6 6 1 = * % + @ % < 9 C =.E E T T T T Y Y Y Y Y I Y I D I F I I =.Q t w 9 8 q ,.d g ~ U f d a t t p a r ",
"P P  . .l 6 = = = 6 s h l p q 6 : * # # * < 9 I ~ f d a t 9 q q q q q q q 9 q q 9 w e a d O.R a t e t ;.g k ( T d a t w w t p r ",
", : k  .L w 1 , 1 s 1.:.:.2.F w 7 , % % : < 9 D / d t w 8 2 2 2 2 2 2 2 2 < 2 < 2 2 8 e a k =.U d p d ;.k x ) U a t w q q t a r ",
"o o , P } y 2 1 6 h ] h g n :.S q 2 : * : 2 w I ^ a q 9 < : : : : : : * : : : : = : 1 9 t d ] Y g d g ;.k x ~ J t w q 9 w d v z ",
"o o , P } t 6 1 8 h =.g h h m *.V 8 , : : 2 q I E t 7 < * @ # # # # @ @ + + @ @ @ O = 1 q p ( T g f g ;.k x ~ I t w e w d 2.*.*.",
"% * g ..P t 6 2 8 k =.f g g g T Q q 2 : , 2 q I E t 9 1 = % % % % % % % % % % % % % = 2 e s ' E h g h 1.j x ) U a p a x ;.U d 0 ",
"q q } ..n 8 1 < 8 h =.s f f f T Q w 2 , , 2 w I E s t 8 < : : : : : : : : : : : : : < 9 t d @.T k g h ;.k x ~ U d d k =.I a t 5 ",
"z z ..G f 6 : 1 7 g @.y p s s Y Q e 7 < , 2 w I ~ g d a w 9 9 8 9 9 9 8 9 9 9 9 9 9 w s g k X.T z k k 1.x x ~ Y f f n O.a t q > ",
"b n ..v p , * < 6 g O.t p a d T Q e 7 , , 6 e Y ) z z x k f f f f f d f f f f f f f h z z v X.( v l l 1.x k ) T g g m =.p q 2 $ ",
"b n 4.g 9 = * : 2 d O.t a d d Y Q w 2 , , 6 p / 1.;.@.1.@.%.%.=.=.=.=.=.;.;.%.%.,.;.;.X.>.>.1.( v z n ,.k k ~ J h g m O.e 8 , O ",
"b b 4.a 2 & % = < s O.t s f k Q E 8 1 , , 8 p v G J J J J H H H I G H H H H H H J H H J H J A M v M 1.T h h ~ U g g B @.q 7 : X ",
"{ { 2.9 < & # * , w S a d f ! *.p 8 1 , 1 9 a n ( ) X.X.X.) O.` O.O.X.X.X.X.X.X.X.( ) ] _ X._ _ ( @.H g d d ~ U h g m O.w 7 : X ",
" .4.T 1 = @ # & : 7 w a k Q [ a q 2 < 1 8 e f *.) K E K R T T T K K T R T T K T T K T R T J T T I M p p p a E J h g m %.w 6 : X ",
"2 2 , = % @ # * < 8 t d ^ %.s w 7 1 2 8 w g *.~ l h h h h h h k h h h h k g h k h k h h h h g f s p t p s d E I h h m @.w 7 : X ",
"* * & % @ # & : 2 w a Q @.t w 9 2 2 8 q s ] E f f s a s d d d d s f d d d d d d f s f s s f s s a y p s d f Q T h g m O.w 6 : X ",
"# + + + # # = 1 9 s ! ` d w 8 2 2 8 w f ] ( s s s s s s d d s d s s d a d d d d s f s f s s f s s p p s f h Q T k g m O.w 6 : X ",
"o o o o # * , 8 t Q ' p w 8 2 2 8 w f / R f s a p s s d d f d f g f s f f s f f s f f f f s f s d d d g h k Q I f f V O.w 6 : X ",
"o o o + & = 6 p Q ' d w 9 2 2 9 w a *.Q s s a a s F 5.5.5.5.5.5.5.5.5.5.5.5.5.5.5.5.5.5.5.5.5.5.5.5.5.5.5.5.5.V d d v O.w 6 : X ",
"o o o @ & < 8 Z =.f t 9 2 2 8 w g ` Q f s a a d F ` c d s s a a a s s s a a a a a a a a a a a a a a s d a p t t t p v O.w 6 , X ",
"o o o + = 1 q R I p w 8 2 7 q t *.E d a a a s I 5.x p t w w q q q q q q q q q q q q q q q q q q q q q q 9 8 8 8 q t c O.t 8 < O ",
"o o o # = 6 w T I t 9 8 7 9 d =.Q d a t p s I :.g e q 7 6 1 1 1 1 1 1 1 1 1 1 1 1 1 1 1 1 1 1 1 2 1 1 1 < , : < 6 9 x O.p q 6 $ ",
"* * * : 1 8 t E I w 9 9 8 p O.R d p t t a Y =.x e 8 1 : = * * * * * * * * * * * * * * * * * * * * * * * * % % = , 7 h ;.a t q > ",
"1 1 1 6 q p s E I t q 9 9 V O.a t t w w D 2.f t 8 , & # + o o o o o o o o o o o o o o o o o o o o o o o o o o % = 1 w Q O.k t 4 ",
"s a s s g h k ( U t q w q D Q t e w w w :.x t 9 1 * % # @ + + + + + + + + + + + + + + + + + + + + + + + + + @ # * < 8 t R %.d r ",
"v v v n b M v ( T t w w e D E e w q q e :.d p q 6 , = * * * * * * * * * * = * * * = * * = * * * * * * * * * = = : 1 8 p f ! :.I ",
"5.5.5.5.5.5.M ( T p w w w D E q 9 9 9 e :.f a w 8 1 < < < < 2 < < < 1 < < < < < < < < < < < < < < 1 < 1 < < < 1 2 7 q p f k U ^ ",
"H H H H H 5.M ( U e 9 9 9 S T 8 8 8 8 w :.d a t w 8 8 8 8 8 8 7 8 8 8 8 8 8 8 8 8 8 8 8 8 8 8 8 8 8 8 8 8 8 8 8 9 q w p d k x j ",
"1.5.5.5.5.5.n ~ I q 8 7 8 C T 7 2 6 7 q :.V n n c x x x x x x x x x x x x x x x x x x x x x x x x x x x x x x x x x c n n m B M ",
"b v v v z z g E D 7 1 2 2 V Y < < < 1 8 ! ` ` =.=.` =.` O.[ =.` *.O.] ' @.] ] O.' O.' ] ' O.' ' ] ` ` ` ` ` O.[ ' ' O.O.O.O.=.O.",
"g h g g g d a t q 7 2 2 2 7 7 2 2 2 6 8 t p a a a p p a p p p a p a a p p a p p p p p p a a a p a a a a a a a a a p a a a a s u ",
"u p t p p t t e q 9 9 8 8 9 9 8 8 8 9 q t p a s s a s a a a a a s s a s s s s s s s a s a a s a a a s s a s s s a s s s s s s r ",
"p p t t t t t t t e w w w e e w w w e t p a d a d d d d d d d d d d s s d d s s f s d s d d d d s d s d s d d s d s d d s d d u ",
"p a p p a p a a a s s s s s s a s s s d d f f f f f f f f f f f f f f f f f f f f f f f f f f f f f f f f f f f f f f f f f f i ",
"6.6.6.6.6.6.6.6.6.6.6.6.6.6.6.6.6.6.6.6.6.6.6.6.6.6.6.6.6.6.6.6.6.6.6.6.6.6.6.6.6.6.6.6.6.6.6.6.6.6.6.6.6.6.6.6.6.6.6.6.6.6.6.6.",
"a p p p p p p a a a a a a a a a a a a a p a a a a a a a a a a a a a a a a a a a a a a a a a a a a a a a a a a a a a a a a a a r ",
"q 9 9 9 9 9 9 9 q q q q q q q q q q q q q q q q q q q q q q q q q q q q q q q q q q q q q q q q q q q q q q q q q q q q q q q 4 ",
"1 1 < < 1 1 2 1 1 1 1 1 1 1 1 1 1 1 1 1 1 1 1 1 1 1 1 1 1 1 1 1 1 1 1 1 1 1 1 1 1 1 1 1 1 1 1 1 1 1 1 1 1 1 1 1 1 1 1 1 1 1 1 ; ",
"* * * * * * & & * * * * * * * * * * * * * * * * * * * * * * * * * * & & & * * * * * * * * * * * * * * * * * * * * * * * * * * O ",
"o o o o o o o o o o o o o o o o o o o o o o o o o o o o o o o o o o o o o o o o o o o o o o o o o o o o o o o o o o o o o o o . ",
"                                                                              .                                                 "
};
