/* XPM */
static char *_5e411e8fa9341f9932ac32d029cb523nH4cU1HMrhSxfNXy[] = {
/* columns rows colors chars-per-pixel */
"65 64 114 2 ",
"   c #0A0F14",
".  c #141A24",
"X  c #19222E",
"o  c #192733",
"O  c #192A35",
"+  c #192D39",
"@  c #19313C",
"#  c #193541",
"$  c #193843",
"%  c #193E4A",
"&  c #19414D",
"*  c #194651",
"=  c #194A56",
"-  c #194E5C",
";  c #19525D",
":  c #195661",
">  c #195965",
",  c #195C69",
"<  c #19626D",
"1  c #196571",
"2  c #196A76",
"3  c #196E7A",
"4  c #19727D",
"5  c #6C747C",
"6  c #196F80",
"7  c #197682",
"8  c #197B86",
"9  c #197C88",
"0  c #19818C",
"q  c #198691",
"w  c #198B95",
"e  c #198E9A",
"r  c #1A939D",
"t  c #1B96A0",
"y  c #1C99A4",
"u  c #1C9EA9",
"i  c #1AA3AD",
"p  c #19ABAE",
"a  c #1CA7B1",
"s  c #1CABB4",
"d  c #19AFB9",
"f  c #1CB3BB",
"g  c #21ACB6",
"h  c #22B2BC",
"j  c #6C838C",
"k  c #6C8C94",
"l  c #6C969D",
"z  c #6C9EA4",
"x  c #6CA0A7",
"c  c #6CA4AB",
"v  c #6CACB3",
"b  c #6CB3B9",
"n  c #6CB8BD",
"m  c #1CBEC6",
"M  c #1ABFC9",
"N  c #22B6C0",
"B  c #22BCC5",
"V  c #23BFC8",
"C  c #1DC0C7",
"Z  c #1CC4CC",
"A  c #1DC8CF",
"S  c #1DD2D2",
"D  c #1DD7D8",
"F  c #1BDCDD",
"G  c #24C3CC",
"H  c #22C8CF",
"J  c #25C7D0",
"K  c #24CCD3",
"L  c #27D0D7",
"P  c #27D4DB",
"I  c #29D6DD",
"U  c #27D8DF",
"Y  c #2AD8DF",
"T  c #27DBE2",
"R  c #2BDEE4",
"E  c #19E5E5",
"W  c #1EEFED",
"Q  c #1CF3F2",
"!  c #27E0E6",
"~  c #2BE1E7",
"^  c #2CE1E7",
"/  c #2CE1E8",
"(  c #2CE2E8",
")  c #2CE2E9",
"_  c #2BE4E9",
"`  c #2CE4E9",
"'  c #2CE4EA",
"]  c #2EE5EB",
"[  c #2EE6EB",
"{  c #2EE8ED",
"}  c #2FE8EE",
"|  c #2EE9EE",
" . c #2FEAEF",
".. c #2FEBF0",
"X. c #2FECF1",
"o. c #2FEFF3",
"O. c #31EDF2",
"+. c #31EEF2",
"@. c #21F5F3",
"#. c #36F6FA",
"$. c #58D3DA",
"%. c #6CC5CB",
"&. c #62C8CE",
"*. c #62D2D7",
"=. c #46EAEF",
"-. c #4AEAEE",
";. c #50E0E5",
":. c #50E5EA",
">. c #69FEFF",
",. c #B5B9BD",
"<. c #B5BBBF",
"1. c #B5BCC0",
"2. c #BFC2C6",
"3. c #BFC4C8",
/* pixels */
"2.,.,.,.,.,.,.,.,.,.,.,.,.,.,.,.,.,.,.,.,.,.,.,.,.,.,.,.,.,.,.,.,.,.,.,.,.,.,.,.,.,.,.,.,.,.,.,.,.,.,.,.,.,.,.,.,.,.,.,.,.,.,.,.,.",
"5 X X X X X X X X X X X X X X X X X X X X X X X X X X X X X X X X X X X X X X X X X X X X X X X X X X X X X X X X X X X X X X X X ",
"5 X X X X X X X X X X X X X X X X X X X X X X X X X X X X X X X X X X X X X X X X X X X X X X X X X X X X X X X X X X X X X X X X ",
"5 X X X X X X X X X X X X X X X X X X X X X X X X X X X X X X X X X X X X X X X X X X X X X X X X X X X X X X X X X X X X X X X X ",
"5 X X X X X X X X X X X X X X X X X X X X X X X X X X X X X X X X X X X X X X X X X X X X X X X X X X X X X X X X X X X X X X X X ",
"j $ $ $ $ $ $ $ $ $ $ $ $ $ $ $ $ $ # $ $ $ $ $ $ # $ $ $ $ $ $ $ $ $ $ # # $ $ $ $ # $ $ $ $ $ $ # $ $ $ $ $ $ $ $ $ $ # # $ $ $ ",
"l - - - - - - - - - - - - - - - ; - - ; - - ; - - - - - - - - - - - - - - - - - ; - - ; - - ; - - - - - - - - - - - - - - - - - ; ",
"c 1 1 1 1 1 1 1 1 1 1 1 1 < 1 1 1 1 < 1 1 < 1 < 1 1 1 1 1 1 1 1 1 1 1 1 1 1 1 1 1 1 < 1 1 < 1 < 1 1 1 1 1 1 1 1 1 1 1 1 1 1 1 1 < ",
"b 8 8 8 8 8 8 8 8 8 8 8 8 8 8 8 8 8 8 8 8 8 9 8 8 8 8 8 8 8 8 9 8 8 8 8 8 9 8 8 8 9 8 8 8 9 8 8 8 8 8 9 8 8 8 8 8 8 8 8 9 8 8 8 7 ",
">.>.>.>.>.>.>.>.>.>.>.>.>.>.>.>.>.>.>.>.>.>.>.>.>.>.>.>.>.>.>.>.>.>.>.>.>.>.>.>.>.>.>.>.>.>.>.>.>.>.>.>.>.>.>.>.>.>.>.>.>.>.>.>.>.",
"b 8 8 8 8 8 8 8 8 8 8 8 8 8 8 8 9 9 9 9 8 9 9 9 9 8 9 9 8 8 9 9 8 8 8 8 8 8 8 9 9 9 8 9 9 9 9 9 8 8 9 9 9 8 8 8 8 8 8 8 8 8 9 8 7 ",
"c 1 1 1 1 1 1 1 1 1 1 1 1 1 1 1 1 1 < < < 1 < 1 1 < 1 1 1 < < 1 1 1 1 1 1 1 1 1 < 1 1 < 1 1 < < 1 < < 1 1 1 1 1 1 1 1 1 1 1 1 1 < ",
"l - - - - - - - - - - - - - - - - - - - - - - - ; - - - ; ; ; - - - - - - - - - ; - - - - - - - ; - - - - - - - - - - - - - - - - ",
"j $ $ $ $ $ $ $ $ $ $ $ $ $ $ $ $ # $ $ $ $ $ $ $ $ $ $ @ $ $ # $ $ $ $ $ $ $ # $ $ $ $ $ $ $ # $ $ $ $ $ $ $ $ $ $ $ # $ $ $ $ $ ",
"5 X X X X X X X X X X X X X X X X X X X X X X X X X X X X X X X X X X X X X X X X X X X X X X X X X X X X X X X X X X X X X X X X ",
"5 X X X X X X X X X X X X X X X X X X X X X X X X X X X X X X X X X X X X X X X X X X X X X X X X X X X X X X X X X X X X X X X X ",
".                                                                                                                                 ",
"X X X X X X X X X X X X X X X X X X X X X X X X X X X X X X X X X X X X X X X X X X X X X X X X X X X X X X X X X X X X X X X X X ",
"3.,.1.1.1.1.1.1.,.1.1.,.,.,.,.1.,.,.1.,.,.,.,.,.,.,.,.,.,.,.,.,.,.,.,.,.,.,.,.,.,.,.1.,.,.,.,.,.,.,.,.,.,.,.,.,.,.,.,.,.,.,.,.,.,.",
"k % % % % % % % $ $ @ + O O X X X X X O O O O + + + + + + + O + + O O O + O O O O o X X X X X X X X X X X X X X X X X X X X X X X ",
"l ; - ; ; ; - - = = & $ @ @ O O O + + @ @ $ & & & & & & & & & % & % % % & & $ $ @ + O O X X X X X X X X X X X X X X X o X X X X X ",
"c 1 < 1 < 1 1 1 < , > ; * & @ @ @ @ @ % = - ; ; ; ; ; ; ; ; ; ; ; ; ; ; ; ; ; = = & @ + O X X X X X X X X X X X X X X . X O o O + ",
"$.B B B B B G B H m y 1 > ; & % & & * ; < < 1 1 1 1 1 1 < < 1 1 1 1 < < < 1 < < , ; & @ O X X X X X O + @ @ @ @ O O o o o # $ & * ",
";.L K P P P P P P T P 8 3 T ; = - ; < 4 h P K P L L J L J J J J J G G G G G G G h 0 ; & @ O X X O + @ $ & & & & $ + O + # % : 2 4 ",
"b 9 7 7 4 4 8 0 q H U w 0 { 1 , < 1 4 I [ H G G B G G G G J J J J J K L L P P P / B , * @ O X O + # % - : > > : & $ # # & , e L W ",
"b 9 8 4 2 2 4 7 0 H T r w o.4 3 4 8 K [ 0 8 3 1 < < 1 < 1 1 < 1 1 1 1 1 2 4 0 q P m < - $ O O + # * : 1 7 r e 9 : & $ & > t @.Q F ",
"b 9 7 4 2 1 2 4 8 H T y r { 0 8 0 H [ r 9 3 < ; ; ; ; ; ; ; ; ; ; ; ; ; , 2 8 0 P G 1 - % + O @ * > 2 V O.) ] O.9 - * - 2 S Q r = ",
"&.a i 0 2 < < 2 4 H U y r { q 0 q K R 0 4 < = & % % % % % % % & & & & & = , 2 8 P G 2 ; % + @ & ; 1 N O.i e w ] e : = : 7 @.F * X ",
"-.[ [  .0 2 3 3 4 H U y r  .w q w K R 7 1 ; $ + O O O O O + + + O + + + $ = , 4 P V 1 ; & + $ * , g / g t e w ] e , - : 7 W F * X ",
"v 7 0 H  .y 7 7 7 H T y r ..e w e L ^ 9 1 ; % @ @ @ @ @ @ @ + @ @ @ @ @ $ ; < 4 P V 2 ; % + $ - 1 I L w w w q ) e , ; ; 6 D Q e @ ",
"x 2 4 9 G ( r 0 0 A U r y o.e e r L ! 0 4 < - & & & & & & & & & & & & & = , 2 9 I G 2 ; % $ & : 2 I J q q 9 9 ) e , - - < a Q W 1 ",
"l ; 1 4 7 [ s q q K T y t  .r r r P ! r w 9 2 < < , < < < , < < , < < < 2 8 0 w P G 2 : % @ % > 3 I K 9 9 7 7 R w , - % : q M @.y ",
"j % : 2 7 ( s w w K T t t ..y y a P ' a u t e q q q q q q q q q q q q q e y u i T H 3 ; % @ & ; 4 U H 0 9 7 4 ^ w : * % * 6 a o.p ",
"5 # * , 3 ( s e w A P t r ..p y i T o.] ..' ....' ' ' _ _ ..' ] ] ] ( [  .( _ _ +.U 7 > % @ & ; 1 U K 0 0 7 4 ^ 0 - & $ % < w @.p ",
"5 @ * > 2 ( s w w A T w e S +.s i d Z Z Z A A C A Z Z Z Z Z Z Z G Z Z Z A A A A C i 7 , & $ $ = < L T r q 9 4 / 0 = & @ # : 7 @.p ",
"5 @ % > 2 ( s e w K T q 9 q H ' T T E R T E R T E R ! ! ! R T ~ ! ! R ! ! ! ! ! U i 8 < = % % * : 7 R Y w 0 7 N 1 * $ + # = 1 @.E ",
"5 @ & : 2 ( s w e J P 9 7 7 7 f M Z K K A P J D K K K K K K K K K K A S S K K K ^ [ 0 3 > * % & ; < 0 R I w 8 2 , % # + O $ - Z @.",
"5 @ & : 2 ( s e e A T 9 8 7 4 7 9 q w e e e e e e e r t e e r e r e r e e e e t r T ^ r 1 : * & * ; < q ^ T 0 4 , = $ + + # % * ; ",
"5 @ & > 2 R s w e A P w 0 8 7 4 9 9 9 9 9 q 9 q q q 9 9 q 9 9 q 9 q 0 0 0 9 9 9 0 q L ~ 8 1 : = & = ; 1 7 ^ P 7 2 ; % # O + # # $ ",
"5 @ & : 2 R s w e J T w q 0 7 7 9 9 0 0 q 9 q 9 9 9 9 q q 9 0 9 0 9 0 0 0 9 9 9 9 9 0 Y / q 1 : = & = : 1 w ^ Y 9 < - $ # o o O O ",
"5 + & > 2 ( a q w A P r e e q 0 9 0 9 q 0 q 0 q e w q q q 9 q 0 q q 0 q 0 0 9 9 7 8 8 q P T q 1 : = * = > < 7 / T 3 , * # + o . X ",
"5 @ & : 2 ( a 9 0 a #.#.#.#.#.#.#.#.#.#.#.#.#.#.=.=.#.#.#.#.#.#.#.#.#.#.#.#.#.V 0 9 8 9 0 P / 9 < : = * = > 2 0 T I 7 : % # o o X ",
"5 @ * > 2 R i 7 4 4 7 7 8 0 9 8 9 9 9 8 9 8 9 9 8 8 8 8 9 9 8 8 9 9 9 9 9 0 u ! H 9 8 8 9 q Y / w 1 > = * = , 3 q / B , * # O X X ",
"5 $ = , 7 ( u 3 1 , > , < 1 1 1 1 1 1 1 1 1 1 1 1 1 1 1 1 1 1 1 1 1 1 1 2 4 7 y ..J 9 8 7 8 0 K ] 4 < ; * * : < 7 V I < - % o X X ",
"j & ; 1 7 / u < : = & * = - - - - - - - - - - - - - - - - - - - - - - - : > 1 4 w [ G 8 7 7 7 0 T / q , - * - , 3 G L 2 ; % O o X ",
"k : 1 4 9 / e > = $ @ # # $ $ $ $ $ $ $ # # $ $ $ # $ $ $ $ $ $ # # % $ % & - , 3 y ] G 8 4 4 7 9 L R 7 ; = - > 2 G P 4 < - & # $ ",
"z 1 4 r / I 2 - % + o X X X X X X X X X X X X X X X X X X X X X X X X X o + # * , 3 q o.B 3 2 4 7 8 / g , - ; : 2 G P 9 7 1 : - - ",
"v 8 0 / L 4 , = $ + O o o o o o o o o o o o o o o o o o O o O O o o o o o + @ # - 1 4 y ..2 1 2 3 4 L B < ; ; : 2 G I r e e 9 9 9 ",
"$.K ] T q 7 , ; & % $ $ $ $ $ $ $ $ $ $ $ $ $ $ % $ $ % $ $ $ $ $ $ $ $ $ $ $ & ; 1 7 0  .3 1 1 2 3 I B 1 : : : 3 J T p s s p i i ",
":.R K t q 7 1 > ; - - = - = = - = = - = = - = = = = = = = = - = = = = = - = - - < 3 8 q  .2 1 < < 1 L B , : : : 3 J Y f #.#.#.#.#.",
"%.y t e 9 7 3 1 , , , , , , , , , , , , , , , , , , , , , , , , , , , , , , , , 2 7 0 0  .2 < , , , L h , ; ; ; 2 J R s #.Z C Z Z ",
"*.f f g g i u y y y y y y y y y y y y y y y y y y y y y y y y y y y y y y y y y i i i i  .1 > ; : > L h ; = = = < G Y p #.#.#.#.#.",
"-.] / ( / / R R R ^ ^ ^ ^ R R R ^ ^ R ^ R ^ R ^ R R [ R R R R R / ^ ^ ^ R ^ R ^ ^ ^ R R U , - - = = J g = * & * - m D e t u i i i ",
"n 9 9 9 8 8 8 8 7 7 7 8 7 8 8 7 7 8 7 7 7 7 7 8 7 7 7 8 8 7 7 8 8 7 7 7 7 8 8 7 9 9 9 7 4 , ; ; - - > > ; = = = ; 1 4 8 q w q w w ",
"b 9 9 9 9 9 9 9 8 9 8 9 9 9 8 9 8 8 9 9 8 9 8 8 9 9 9 9 9 9 9 9 9 9 9 9 8 8 8 8 9 9 8 7 3 1 < < , , < , , > > > < 1 4 4 7 8 7 7 8 ",
"b 0 9 0 9 0 0 9 0 0 9 0 0 0 9 0 0 0 0 9 0 0 0 0 9 0 9 0 9 9 0 0 9 0 0 9 0 0 0 0 0 0 9 8 7 4 2 2 3 2 3 3 2 2 2 2 2 4 4 4 4 4 7 7 4 ",
"n 0 q q w 0 w 0 q w q q w 0 w 0 q q q q q q q q q q q q q q q q w q q q q q q q q q 0 0 0 0 8 9 9 9 9 9 9 9 9 8 9 9 9 9 9 9 8 8 8 ",
">.>.>.>.>.>.>.>.>.>.>.>.>.>.>.>.>.>.>.>.>.>.>.>.>.>.>.>.>.>.>.>.>.>.>.>.>.>.>.>.>.>.>.>.>.>.>.>.>.>.>.>.>.>.>.>.>.>.>.>.>.>.>.>.>.",
"b 9 9 8 9 8 9 9 7 8 8 8 9 9 9 9 8 8 8 8 8 8 8 8 8 8 8 8 8 8 8 8 8 8 8 8 8 8 8 8 8 8 8 8 8 8 8 8 8 8 8 8 8 8 8 8 8 8 8 8 8 8 8 8 8 ",
"c < 1 1 1 < 1 < 1 1 1 1 < 1 1 < 1 1 1 1 1 1 1 1 1 1 1 1 1 1 < 1 1 1 1 1 1 1 1 1 1 1 1 1 1 1 1 1 1 1 1 1 1 1 1 1 1 1 1 1 1 1 1 1 < ",
"l - - - - - - - - - - - ; - - - - - - - - - - - - - - - - - - - - - - - - - - - - - - - - - - - - - - - - - - - - - - - - - - - = ",
"j % $ $ $ # $ $ $ $ $ $ $ $ $ $ $ $ $ $ $ $ $ $ $ $ $ $ $ $ $ $ $ $ $ $ $ $ $ $ $ $ $ $ $ $ $ $ $ $ $ $ $ $ $ $ $ $ $ $ $ $ $ $ $ ",
"5 X X X X X X X X X X X X X X X X X X X X X X X X X X X X X X X X X X X X X X X X X X X X X X X X X X X X X X X X X X X X X X X X ",
".                                                                                                                                 "
};
